{"glyphs":{"0":{"ha":756,"x_min":46,"x_max":717,"o":"m 46 506 q 60 687 46 593 q 112 859 74 781 q 219 988 150 938 q 397 1038 288 1038 q 522 1013 471 1038 q 610 946 574 988 q 667 849 646 904 q 699 733 688 793 q 713 612 710 674 q 717 494 717 550 q 703 323 717 411 q 652 161 689 235 q 550 40 615 88 q 382 -7 485 -7 q 210 42 276 -7 q 108 165 144 90 q 59 331 72 240 q 46 506 46 422 m 229 471 q 232 417 229 450 q 242 347 235 385 q 261 273 250 310 q 289 206 272 236 q 328 156 306 175 q 378 138 350 138 q 438 158 413 138 q 480 213 463 179 q 508 288 497 246 q 526 371 519 329 q 535 450 533 413 q 538 511 538 488 q 534 613 538 549 q 516 739 531 676 q 471 847 501 801 q 388 893 440 893 q 326 869 351 893 q 283 806 300 844 q 254 720 265 768 q 238 625 243 672 q 231 537 232 578 q 229 471 229 496 z "},"1":{"ha":481,"x_min":0,"x_max":0,"o":""},"2":{"ha":728,"x_min":54,"x_max":699,"o":"m 71 819 q 190 994 111 932 q 393 1057 269 1057 q 492 1044 443 1057 q 579 1006 540 1032 q 642 939 618 979 q 667 842 667 899 q 647 727 667 788 q 595 604 628 667 q 520 479 563 542 q 433 360 478 417 q 346 252 389 303 q 268 161 303 201 l 546 161 l 699 289 l 649 -3 l 538 0 l 143 -3 q 74 23 93 -3 q 54 96 54 49 q 59 138 54 124 q 79 174 64 151 q 194 324 128 242 q 322 493 261 406 q 426 672 383 581 q 469 850 469 763 q 460 878 469 867 q 436 897 450 889 q 406 908 422 904 q 375 911 389 911 l 61 697 l 71 819 z "},"3":{"ha":657,"x_min":0,"x_max":0,"o":""},"4":{"ha":706,"x_min":19,"x_max":706,"o":"m 411 126 l 410 231 q 270 227 339 229 q 131 225 201 225 q 45 260 71 225 q 19 350 19 294 q 42 415 19 368 q 101 524 65 463 q 181 656 138 586 q 265 788 224 725 q 338 901 306 851 q 385 974 371 951 l 593 1058 l 606 381 l 706 378 l 606 229 l 608 126 l 683 -22 l 581 -21 l 424 -21 l 297 -22 l 411 126 m 408 381 l 407 790 l 172 378 l 408 381 z "},"5":{"ha":640,"x_min":0,"x_max":0,"o":""},"6":{"ha":683,"x_min":24,"x_max":654,"o":"m 363 -19 q 206 14 271 -19 q 101 104 142 47 q 42 236 61 161 q 24 393 24 311 q 32 532 24 458 q 59 678 40 606 q 108 817 78 750 q 185 936 139 885 q 293 1018 231 988 q 438 1049 356 1049 q 496 1047 467 1049 q 549 1034 525 1044 q 587 1003 572 1024 q 601 944 601 982 l 603 800 l 449 894 q 356 862 394 894 q 292 781 318 829 q 251 680 267 733 q 229 583 236 626 q 284 595 257 590 q 339 600 311 600 q 458 576 401 600 q 559 510 515 551 q 628 412 603 468 q 654 293 654 356 q 632 177 654 233 q 570 77 610 121 q 477 7 531 33 q 363 -19 424 -19 m 213 431 q 216 340 213 393 q 235 237 219 286 q 281 153 250 188 q 364 118 311 118 q 416 133 396 118 q 448 172 436 149 q 465 222 460 194 q 469 275 469 250 q 462 341 469 308 q 438 399 454 374 q 394 441 421 425 q 328 457 367 457 q 269 449 297 457 q 213 431 240 442 z "},"7":{"ha":553,"x_min":0,"x_max":0,"o":""},"8":{"ha":747,"x_min":0,"x_max":0,"o":""},"9":{"ha":674,"x_min":10,"x_max":650,"o":"m 349 1051 q 492 1014 435 1051 q 585 917 550 976 q 635 785 619 858 q 650 639 650 711 q 643 501 650 575 q 619 354 636 426 q 572 215 601 282 q 498 96 543 147 q 390 14 453 44 q 246 -17 328 -17 q 192 -14 222 -17 q 135 -1 163 -11 q 90 27 108 8 q 72 78 72 46 l 72 244 l 233 138 q 321 165 285 138 q 381 233 357 192 q 419 321 406 274 q 440 410 433 368 q 384 397 413 403 q 328 392 356 392 q 203 413 261 392 q 101 475 144 435 q 34 572 58 515 q 10 696 10 628 q 33 838 10 772 q 101 950 57 903 q 207 1024 144 997 q 349 1051 269 1051 m 457 563 q 458 578 458 564 q 458 608 458 592 q 456 695 458 643 q 440 796 453 747 q 399 879 426 844 q 322 914 372 914 q 260 893 285 914 q 222 842 236 872 q 201 776 207 811 q 196 711 196 740 q 204 647 196 678 q 229 590 213 615 q 273 551 246 565 q 338 536 300 536 q 399 544 369 536 q 457 563 428 551 z "},"\u0000":{"ha":0,"x_min":0,"x_max":0,"o":""},"\r":{"ha":347,"x_min":0,"x_max":0,"o":""}," ":{"ha":447,"x_min":0,"x_max":0,"o":""},"!":{"ha":463,"x_min":107,"x_max":350,"o":"m 140 1013 q 168 1088 140 1065 q 246 1110 196 1110 q 322 1088 293 1110 q 350 1017 350 1067 l 318 246 l 143 243 l 140 1013 m 107 60 q 144 138 107 110 q 228 165 181 165 q 310 137 274 165 q 346 60 346 108 q 311 -22 346 4 q 225 -47 276 -47 q 140 -21 174 -47 q 107 60 107 6 z "},"\"":{"ha":425,"x_min":32,"x_max":406,"o":"m 33 1010 q 50 1082 32 1057 q 119 1107 68 1107 q 184 1083 163 1107 q 207 1017 206 1058 l 211 861 l 38 856 l 33 1010 m 228 1010 q 244 1082 226 1057 q 314 1107 263 1107 q 378 1083 357 1107 q 401 1017 400 1058 l 406 872 l 232 874 l 228 1010 z "},"#":{"ha":997,"x_min":32,"x_max":969,"o":"m 336 8 l 143 -1 l 179 226 l 32 218 l 56 392 l 210 392 l 261 657 l 85 657 l 122 818 l 292 815 l 329 1013 q 366 1074 338 1054 q 435 1094 394 1094 l 551 1094 l 488 817 l 651 817 q 668 913 660 865 q 688 1010 676 961 q 726 1074 697 1054 q 799 1094 754 1093 l 921 1099 l 849 818 l 969 818 l 936 660 l 819 661 l 768 392 l 918 388 l 876 226 l 733 235 l 696 10 l 499 0 l 539 233 l 374 229 l 336 8 m 569 389 l 619 660 l 458 660 l 406 385 l 569 389 z "},"$":{"ha":708,"x_min":94,"x_max":651,"o":"m 99 765 q 113 853 99 810 q 154 931 128 896 q 217 992 181 967 q 297 1028 254 1018 l 297 1179 l 456 1179 l 456 1004 q 525 944 497 981 l 642 1038 l 622 700 l 621 643 l 364 900 q 326 888 343 900 q 297 856 308 875 q 278 815 285 838 q 272 775 272 793 q 300 695 272 731 q 370 626 328 660 q 462 559 413 593 q 553 484 511 525 q 624 391 596 443 q 651 271 651 339 q 638 185 651 225 q 600 116 625 146 q 538 68 575 86 q 456 47 501 50 l 456 -101 l 297 -101 l 297 88 q 217 146 250 114 l 94 24 l 94 382 l 422 175 q 469 201 451 175 q 488 254 488 228 q 459 327 488 293 q 387 396 431 361 q 293 468 343 431 q 199 549 243 506 q 127 646 156 593 q 99 765 99 699 z "},"%":{"ha":1251,"x_min":31,"x_max":1229,"o":"m 375 -19 l 165 -26 l 793 928 q 686 926 740 925 q 579 935 632 928 q 610 859 599 899 q 621 779 621 819 q 594 669 621 721 q 526 577 568 617 q 428 515 483 538 q 317 492 374 492 q 203 516 256 492 q 112 582 150 540 q 52 678 74 624 q 31 793 31 733 q 55 912 31 856 q 121 1010 79 968 q 218 1078 163 1053 q 336 1103 274 1103 q 390 1099 364 1103 q 442 1092 415 1096 q 622 1071 532 1078 q 803 1064 711 1064 q 881 1067 843 1064 q 956 1083 919 1069 l 1047 1008 l 375 -19 m 925 -50 q 815 -28 865 -50 q 730 33 765 -6 q 675 123 694 71 q 656 233 656 175 q 678 354 656 296 q 742 456 701 413 q 837 526 782 500 q 957 553 892 553 q 1068 531 1018 553 q 1153 469 1118 508 q 1209 378 1189 431 q 1229 268 1229 326 q 1206 146 1229 204 q 1143 44 1183 88 q 1047 -24 1103 1 q 925 -50 992 -50 m 324 646 q 374 658 353 646 q 408 690 394 671 q 427 735 421 710 q 433 786 433 761 q 427 840 433 810 q 408 898 421 871 q 374 944 394 925 q 325 964 354 964 q 277 944 297 964 q 244 897 257 925 q 226 839 232 869 q 221 786 221 808 q 226 736 221 761 q 243 691 231 711 q 275 658 256 671 q 324 646 294 646 m 933 94 q 989 111 967 94 q 1025 154 1011 128 q 1045 211 1039 181 q 1051 268 1051 242 q 1047 315 1051 290 q 1031 361 1042 340 q 1001 396 1019 382 q 956 410 983 410 q 901 392 924 410 q 866 349 879 375 q 847 292 853 322 q 840 235 840 261 q 844 188 840 213 q 859 142 849 163 q 888 108 869 121 q 933 94 906 94 z "},"&":{"ha":894,"x_min":21,"x_max":871,"o":"m 504 526 l 871 510 l 776 376 q 735 288 761 332 q 682 207 710 244 l 851 -21 l 654 -33 l 581 85 q 461 8 525 36 q 322 -21 397 -21 q 214 -1 268 -21 q 117 53 160 18 q 48 136 75 88 q 21 243 21 185 q 36 332 21 288 q 76 418 51 376 q 133 497 101 460 q 196 563 164 533 q 154 630 176 593 q 114 706 132 667 q 84 785 96 744 q 72 863 72 825 q 103 968 72 921 q 183 1049 135 1015 q 288 1100 231 1082 q 396 1118 344 1118 q 498 1099 447 1118 q 589 1047 549 1081 q 654 967 629 1014 q 679 867 679 921 q 654 764 679 808 q 592 683 629 719 q 511 613 554 646 q 432 543 468 579 q 503 442 467 492 q 579 343 539 392 q 592 370 586 357 q 606 397 599 383 l 504 526 m 472 203 q 387 303 433 244 q 294 424 340 361 q 265 388 281 408 q 238 346 250 368 q 217 300 225 324 q 208 256 208 276 q 219 210 208 233 q 246 170 229 188 q 284 142 263 153 q 329 131 306 131 q 406 155 367 131 q 472 203 444 179 m 339 688 q 377 718 351 697 q 428 765 403 739 q 473 822 454 792 q 492 878 492 851 q 486 912 492 894 q 470 944 481 929 q 444 969 460 960 q 411 979 429 979 q 363 968 388 979 q 319 939 339 957 q 286 897 299 921 q 274 850 274 874 q 281 810 274 832 q 297 766 288 788 q 318 724 307 744 q 339 688 329 704 z "},"'":{"ha":218,"x_min":32,"x_max":211,"o":"m 33 1010 q 50 1082 32 1057 q 119 1107 68 1107 q 184 1083 163 1107 q 207 1017 206 1058 l 211 861 l 38 856 l 33 1010 z "},"(":{"ha":549,"x_min":100,"x_max":490,"o":"m 414 -128 q 371 -114 394 -128 q 249 4 300 -71 q 165 167 199 79 q 116 346 132 254 q 100 515 100 438 q 115 689 100 594 q 164 872 131 783 q 251 1034 197 960 q 381 1149 304 1108 q 401 1158 390 1154 q 422 1161 411 1161 l 490 1161 l 490 1075 q 478 1030 490 1046 q 447 994 467 1014 q 376 888 406 949 q 328 759 346 826 q 301 624 310 692 q 293 494 293 556 q 327 249 293 368 q 444 32 361 131 q 468 -3 460 17 q 476 -44 476 -22 l 476 -128 l 414 -128 z "},")":{"ha":442,"x_min":32,"x_max":422,"o":"m 46 -128 l 46 -44 q 54 -3 46 -22 q 78 32 63 17 q 195 249 161 131 q 229 494 229 368 q 221 624 229 556 q 194 759 213 692 q 147 888 176 826 q 75 994 117 949 q 44 1030 56 1014 q 32 1075 32 1046 l 32 1161 l 100 1161 q 122 1158 111 1161 q 142 1149 132 1154 q 272 1034 218 1108 q 358 872 325 960 q 407 689 392 783 q 422 515 422 594 q 406 346 422 438 q 357 167 390 254 q 273 4 324 79 q 151 -114 222 -71 q 108 -128 128 -128 l 46 -128 z "},"*":{"ha":617,"x_min":76,"x_max":540,"o":"m 175 1067 l 233 993 l 231 1089 l 383 1090 l 383 1003 l 440 1072 l 540 957 l 419 888 l 526 829 l 438 708 l 383 776 l 385 690 l 232 689 l 239 776 l 169 703 l 83 818 l 196 888 l 76 950 l 175 1067 z "},"+":{"ha":768,"x_min":142,"x_max":635,"o":"m 144 451 l 142 599 l 297 597 l 292 743 l 485 749 l 488 597 l 635 599 l 635 454 l 490 454 l 496 300 l 301 303 l 300 454 l 144 451 z "},",":{"ha":378,"x_min":60,"x_max":303,"o":"m 76 -196 l 96 -17 q 68 21 76 -1 q 60 67 60 43 q 98 150 60 122 q 188 178 136 178 q 234 164 213 178 q 271 128 256 150 q 294 79 286 107 q 303 24 303 51 l 76 -196 z "},"-":{"ha":550,"x_min":76,"x_max":478,"o":"m 76 511 l 478 511 l 478 357 l 76 357 l 76 511 z "},".":{"ha":378,"x_min":64,"x_max":313,"o":"m 64 74 q 100 156 64 129 q 188 183 136 183 q 276 156 239 183 q 313 74 313 129 q 276 -10 313 18 q 188 -37 240 -37 q 99 -10 135 -37 q 64 74 64 18 z "},"/":{"ha":597,"x_min":49,"x_max":575,"o":"m 575 1050 q 562 994 575 1039 q 527 883 549 950 q 477 735 506 817 q 418 565 449 653 q 356 392 388 478 q 299 234 325 307 q 253 108 272 161 q 224 31 233 54 q 185 -24 213 -8 q 121 -39 158 -39 l 49 -39 l 49 31 q 63 79 49 35 q 99 193 76 124 q 149 350 121 263 q 209 530 178 438 q 270 711 240 622 q 326 872 300 800 q 369 992 351 944 q 392 1050 386 1040 q 412 1083 403 1069 q 433 1104 421 1096 q 460 1117 444 1113 q 500 1121 476 1121 l 575 1121 l 575 1050 z "},":":{"ha":385,"x_min":64,"x_max":313,"o":"m 64 632 q 100 714 64 686 q 188 742 136 742 q 275 714 238 742 q 313 632 313 686 q 276 548 313 575 q 188 521 240 521 q 99 548 135 521 q 64 632 64 575 m 64 74 q 100 156 64 129 q 188 183 136 183 q 276 156 239 183 q 313 74 313 129 q 276 -10 313 18 q 188 -37 240 -37 q 99 -10 135 -37 q 64 74 64 18 z "},";":{"ha":367,"x_min":60,"x_max":321,"o":"m 74 632 q 110 714 74 686 q 197 742 146 742 q 285 714 249 742 q 321 632 321 686 q 285 548 321 575 q 197 521 250 521 q 109 548 144 521 q 74 632 74 575 m 76 -196 l 96 -17 q 68 21 76 -1 q 60 67 60 43 q 98 150 60 122 q 188 178 136 178 q 234 164 213 178 q 271 128 256 150 q 294 79 286 107 q 303 24 303 51 l 76 -196 z "},"<":{"ha":549,"x_min":58,"x_max":469,"o":"m 303 458 q 358 438 329 449 q 413 413 388 428 q 453 376 438 399 q 469 317 469 353 l 469 256 l 418 256 q 391 264 415 256 q 332 285 367 272 q 258 312 297 297 q 183 340 218 326 q 124 364 149 354 q 97 376 100 374 q 67 409 76 392 q 58 453 58 426 q 83 502 58 476 q 146 552 108 528 q 228 599 183 576 q 313 639 272 622 q 382 666 353 656 q 417 676 411 676 l 465 676 l 465 613 q 450 553 465 576 q 410 513 435 529 q 358 483 386 496 q 303 458 329 471 z "},"=":{"ha":539,"x_min":76,"x_max":478,"o":"m 76 619 l 478 619 l 478 465 l 76 465 l 76 619 m 76 440 l 478 440 l 478 286 l 76 286 l 76 440 z "},">":{"ha":540,"x_min":58,"x_max":469,"o":"m 225 458 q 170 483 199 471 q 117 513 142 496 q 78 553 93 529 q 63 613 63 576 l 63 676 l 111 676 q 147 666 118 676 q 215 639 175 656 q 300 599 256 622 q 382 552 344 576 q 444 502 419 528 q 469 453 469 476 q 460 409 469 426 q 431 376 451 392 q 403 364 428 374 q 344 340 379 354 q 270 312 310 326 q 196 285 231 297 q 138 264 161 272 q 110 256 114 256 l 58 256 l 58 317 q 74 376 58 353 q 115 413 90 399 q 169 438 140 428 q 225 458 199 449 z "},"?":{"ha":653,"x_min":28,"x_max":611,"o":"m 167 225 q 185 327 167 278 q 233 425 204 376 q 294 522 261 474 q 355 617 326 569 q 402 715 383 665 q 421 815 421 764 q 416 864 421 838 q 399 913 411 890 q 369 949 388 935 q 322 964 350 964 l 28 740 l 28 819 q 51 934 28 878 q 113 1035 74 990 q 205 1106 151 1079 q 318 1133 258 1133 q 438 1106 385 1133 q 531 1034 492 1079 q 590 931 569 989 q 611 810 611 872 q 600 717 611 761 q 570 630 589 672 q 528 547 551 588 q 479 467 504 507 q 360 225 410 353 l 167 225 m 386 60 q 351 -19 386 7 q 268 -46 317 -46 q 185 -19 219 -46 q 151 58 151 7 q 188 135 151 108 q 271 163 225 163 q 352 135 318 163 q 386 60 386 108 z "},"@":{"ha":1053,"x_min":38,"x_max":981,"o":"m 581 297 q 519 253 553 274 q 447 233 485 233 q 378 251 408 233 q 326 299 347 269 q 293 367 304 329 q 282 444 282 406 q 296 556 282 500 q 336 656 310 611 q 399 728 363 700 q 478 756 435 756 q 508 752 496 756 q 531 744 521 749 q 548 735 540 739 q 563 732 556 732 l 574 756 l 685 750 l 715 413 q 721 389 717 406 q 736 372 725 372 q 788 427 771 372 q 804 576 804 482 q 785 669 804 624 q 732 751 765 715 q 653 810 699 788 q 557 832 608 832 q 417 800 478 832 q 313 715 356 768 q 247 593 269 661 q 225 451 225 525 q 246 320 225 379 q 307 219 267 261 q 405 153 347 176 q 536 131 463 131 q 632 135 593 131 q 700 149 671 139 q 753 172 729 158 q 803 207 776 186 l 896 126 q 836 49 879 79 q 740 3 793 19 q 630 -19 686 -14 q 531 -25 574 -25 q 333 8 424 -25 q 177 104 243 42 q 74 255 111 167 q 38 453 38 343 q 78 660 38 564 q 190 827 119 756 q 357 940 261 899 q 564 981 453 981 q 723 950 647 981 q 856 865 799 919 q 947 738 913 811 q 981 579 981 664 q 975 504 981 547 q 957 419 969 461 q 925 340 944 376 q 878 282 906 303 q 804 240 843 257 q 721 222 765 222 q 642 244 679 222 q 581 297 606 265 m 447 474 q 460 423 447 442 q 485 404 474 404 q 519 419 506 404 q 542 454 533 433 q 553 498 550 475 q 557 538 557 521 q 556 549 557 540 q 553 566 556 557 q 549 582 551 575 q 544 589 547 589 q 504 578 522 589 q 474 550 486 567 q 454 513 461 533 q 447 474 447 493 z "},"A":{"ha":814,"x_min":-19,"x_max":828,"o":"m 279 953 l 122 1093 l 672 1093 l 563 957 l 760 136 l 828 6 l 740 0 l 576 -3 l 428 0 l 558 135 l 519 286 l 271 258 l 236 119 l 325 -19 l 221 -18 l -19 -22 l 71 118 l 279 953 m 490 424 l 407 799 l 307 404 l 490 424 z "},"B":{"ha":728,"x_min":0,"x_max":711,"o":"m 78 1081 q 181 1082 129 1081 q 283 1083 232 1083 l 351 1083 q 481 1067 417 1083 q 597 1017 546 1051 q 679 931 647 983 q 711 803 711 878 q 697 723 711 761 q 660 651 683 685 q 608 588 638 617 q 546 536 578 560 q 660 433 615 500 q 706 286 706 365 q 668 140 706 201 q 572 41 631 79 q 438 -17 513 3 q 290 -37 364 -36 q 195 -39 242 -39 q 100 -39 149 -39 l 15 -26 l 89 115 l 92 921 l 0 1082 l 78 1081 m 272 117 q 357 126 314 119 q 434 152 400 133 q 490 203 468 171 q 513 286 513 235 q 502 338 513 313 q 475 386 492 364 q 437 426 458 408 q 392 453 415 443 q 338 433 365 440 q 282 418 310 425 l 272 117 m 283 558 q 360 592 321 569 q 433 647 400 615 q 487 717 465 678 q 508 797 508 756 q 492 856 508 833 q 451 892 476 879 q 396 910 426 906 q 336 915 365 915 q 313 915 325 915 q 289 914 300 914 l 283 558 z "},"C":{"ha":685,"x_min":36,"x_max":629,"o":"m 343 -35 q 227 -10 276 -35 q 144 58 178 15 q 89 155 110 100 q 56 269 68 210 q 40 388 44 329 q 36 499 36 447 q 40 613 36 549 q 56 744 44 676 q 88 876 67 811 q 142 992 108 942 q 226 1074 176 1043 q 343 1106 275 1106 q 421 1090 383 1106 q 486 1044 458 1075 l 615 1165 l 607 797 l 607 701 l 364 950 q 315 922 336 950 q 279 849 294 893 q 254 750 264 804 q 238 644 244 696 q 230 551 232 593 q 228 488 228 508 q 230 431 228 467 q 238 355 232 396 q 253 272 243 314 q 278 197 263 231 q 315 142 293 164 q 367 121 338 121 l 629 360 l 629 -87 l 494 29 q 343 -35 433 -35 z "},"D":{"ha":728,"x_min":-36,"x_max":721,"o":"m -36 -14 l 60 132 l 78 932 l -35 1082 l 103 1083 l 313 1083 q 501 1047 424 1083 q 628 948 579 1011 q 699 798 676 885 q 721 610 721 711 q 712 475 721 546 q 682 335 703 404 q 628 202 661 265 q 549 91 596 139 q 441 15 503 43 q 301 -14 379 -14 l -36 -14 m 254 132 q 272 131 263 131 q 289 131 281 131 q 376 155 339 131 q 439 218 413 179 q 482 307 465 257 q 508 408 499 357 q 522 509 518 460 q 525 594 525 558 q 518 695 525 636 q 491 808 511 754 q 436 899 471 861 q 344 936 401 936 q 309 935 326 936 q 274 935 292 935 l 254 132 z "},"E":{"ha":619,"x_min":32,"x_max":610,"o":"m 586 196 q 583 130 586 164 q 578 64 581 96 q 554 16 574 25 q 500 7 535 7 q 331 -2 415 7 q 163 -11 247 -11 q 65 17 99 -11 q 32 111 32 44 l 32 965 q 67 1058 32 1031 q 164 1086 101 1086 q 318 1085 242 1086 q 471 1079 394 1085 q 543 1065 515 1076 q 585 1031 571 1053 q 605 977 600 1008 q 610 906 610 946 l 610 801 l 461 917 l 231 922 l 226 571 l 389 597 l 528 701 l 528 607 l 532 443 l 529 347 l 389 449 l 225 422 l 221 151 l 443 169 l 586 279 l 586 196 z "},"F":{"ha":642,"x_min":17,"x_max":635,"o":"m 17 1093 l 494 1093 q 574 1078 546 1093 q 616 1038 603 1064 q 632 976 629 1013 q 635 899 635 940 l 635 824 l 488 940 l 300 940 l 289 497 l 447 532 l 581 639 l 588 517 l 592 400 l 592 279 l 447 383 l 286 350 l 279 118 l 388 -18 l 261 -18 l 100 -21 l 17 -19 l 93 118 l 104 943 l 17 1093 z "},"G":{"ha":738,"x_min":36,"x_max":728,"o":"m 338 -21 q 228 3 275 -21 q 147 66 181 26 q 92 158 114 106 q 58 265 71 210 q 41 377 46 321 q 36 482 36 433 q 40 599 36 533 q 57 735 44 665 q 92 871 69 804 q 151 990 115 938 q 237 1074 186 1042 q 357 1106 288 1106 q 439 1088 400 1106 q 506 1036 478 1069 l 631 1142 l 621 650 l 376 950 q 322 917 344 950 q 283 832 299 883 q 258 718 268 781 q 243 597 249 656 q 236 489 238 538 q 235 417 235 440 q 240 333 235 382 q 263 238 246 283 q 309 162 279 193 q 386 131 339 131 q 441 149 419 131 q 476 194 463 167 q 497 251 490 221 q 504 308 503 282 l 351 457 l 728 475 l 660 328 l 674 -28 l 529 82 q 466 11 514 43 q 338 -21 418 -21 z "},"H":{"ha":794,"x_min":13,"x_max":794,"o":"m 510 597 l 526 958 l 419 1099 l 794 1099 l 726 965 l 686 119 l 776 -19 l 676 -18 l 535 -21 l 388 -21 l 489 115 l 503 449 l 290 379 l 296 117 l 378 -21 l 268 -18 l 126 -21 l 13 -19 l 100 118 l 82 958 l 13 1099 l 396 1099 l 279 964 l 288 529 l 510 597 z "},"I":{"ha":517,"x_min":-7,"x_max":525,"o":"m 168 944 l 18 1093 l 93 1096 l 146 1096 l 367 1093 l 511 1093 l 363 943 l 351 142 l 525 0 l 103 -1 l -7 -7 l 156 144 l 168 944 z "},"J":{"ha":571,"x_min":15,"x_max":571,"o":"m 249 97 q 278 112 267 97 q 297 146 290 126 q 305 187 303 165 q 307 221 307 208 q 305 572 307 399 q 303 924 303 746 l 49 1054 l 571 1108 l 496 950 l 496 718 q 498 552 496 635 q 501 386 500 469 l 501 388 q 503 359 503 372 q 503 331 503 346 q 502 276 503 303 q 501 221 501 249 q 487 110 501 161 q 442 22 472 58 q 365 -35 411 -14 q 253 -56 318 -56 q 136 -32 182 -56 q 63 33 90 -8 q 26 128 36 74 q 15 244 15 183 l 15 357 l 249 97 z "},"K":{"ha":768,"x_min":0,"x_max":815,"o":"m 496 646 l 675 140 l 815 -22 l 439 -22 l 504 58 l 381 446 l 293 296 l 300 117 l 404 -18 l 261 -18 l 0 -22 l 107 119 l 89 942 l 0 1093 l 354 1093 l 285 949 l 289 539 l 467 925 l 385 1076 l 788 1076 l 654 921 l 496 646 z "},"L":{"ha":588,"x_min":-10,"x_max":588,"o":"m 532 6 l 14 -18 l 94 126 l 88 946 l -10 1085 l 397 1085 l 281 950 l 283 135 l 415 151 l 588 336 l 576 253 l 532 6 z "},"M":{"ha":979,"x_min":-19,"x_max":979,"o":"m 219 -18 l 57 -21 l -19 -18 l 71 118 l 100 958 l 7 1099 l 265 1099 q 301 1097 288 1099 q 324 1090 315 1096 q 338 1073 332 1085 q 350 1039 343 1061 q 372 963 363 1001 q 390 886 381 925 q 435 706 414 794 q 479 525 456 617 q 563 769 524 647 q 642 1015 603 890 q 675 1068 654 1056 q 738 1081 696 1081 l 964 1081 l 860 938 l 894 118 l 979 -19 l 888 -18 l 733 -21 l 608 -19 l 713 118 l 685 668 q 608 424 644 546 q 526 181 571 301 q 446 125 507 125 q 406 138 422 125 q 383 174 389 151 l 250 692 l 231 119 l 322 -19 l 219 -18 z "},"N":{"ha":783,"x_min":-68,"x_max":824,"o":"m 90 958 l -68 1097 l 104 1099 l 183 1099 q 262 1078 226 1099 q 315 1017 297 1057 l 551 485 l 564 958 l 453 1097 l 824 1097 l 718 961 q 707 537 711 749 q 688 113 703 325 q 663 56 685 72 q 601 40 640 40 q 547 55 571 40 q 513 97 524 69 l 240 750 l 251 163 l 386 24 l 283 25 l 92 22 l -6 22 l 92 161 l 90 958 z "},"O":{"ha":769,"x_min":24,"x_max":749,"o":"m 24 536 q 39 733 24 632 q 96 915 54 833 q 213 1050 138 997 q 406 1103 288 1103 q 541 1076 485 1103 q 635 1005 597 1050 q 696 901 674 960 q 730 777 718 842 q 745 646 742 713 q 749 519 749 579 q 743 397 749 460 q 722 276 738 335 q 681 165 707 217 q 616 76 656 114 q 521 15 576 38 q 390 -7 465 -7 q 257 16 314 -7 q 159 79 200 39 q 92 173 118 119 q 51 286 67 226 q 30 410 36 346 q 24 536 24 475 m 221 499 q 224 440 221 475 q 235 364 228 404 q 255 284 243 324 q 285 213 267 244 q 328 160 304 181 q 385 140 353 140 q 451 163 424 140 q 499 220 479 185 q 532 300 519 256 q 551 390 544 344 q 561 475 558 435 q 564 543 564 515 q 563 613 564 571 q 556 700 561 654 q 539 792 550 746 q 509 876 528 839 q 463 937 490 914 q 396 960 435 960 q 326 933 356 960 q 278 865 297 907 q 247 772 258 824 q 230 668 236 719 q 222 572 224 617 q 221 499 221 526 z "},"P":{"ha":754,"x_min":3,"x_max":754,"o":"m 89 953 l 3 1093 l 336 1093 q 492 1078 417 1093 q 625 1028 567 1064 q 719 931 683 992 q 754 775 754 869 q 713 610 754 679 q 606 492 671 542 q 461 406 540 442 q 306 340 382 369 q 310 229 308 285 q 313 118 313 174 l 522 -22 l 425 -21 l 118 -21 l 21 -22 l 110 118 l 89 953 m 297 472 q 394 511 347 488 q 476 569 440 535 q 534 648 513 603 q 556 750 556 693 q 542 832 556 794 q 502 897 528 869 q 440 940 476 924 q 358 956 403 956 l 283 956 q 288 714 283 833 q 297 472 292 594 z "},"Q":{"ha":779,"x_min":24,"x_max":749,"o":"m 24 536 q 29 661 24 596 q 50 790 35 726 q 91 910 65 853 q 157 1010 117 967 q 253 1078 197 1053 q 386 1103 310 1103 q 524 1077 467 1103 q 622 1007 582 1051 q 688 904 663 963 q 726 781 713 846 q 744 649 739 717 q 749 519 749 582 q 743 394 749 460 q 721 265 738 328 q 673 146 704 201 q 589 53 642 90 q 613 19 596 26 q 653 13 631 13 l 742 13 l 613 -150 q 558 -136 582 -150 q 515 -100 533 -122 q 482 -52 496 -78 q 457 -1 468 -26 q 424 -6 440 -4 q 390 -7 407 -7 q 204 43 276 -7 q 92 172 132 93 q 38 347 53 250 q 24 536 24 443 m 379 319 q 452 295 421 319 q 506 238 483 271 q 531 308 521 269 q 549 388 542 347 q 560 468 557 428 q 564 543 564 508 q 562 616 564 574 q 553 705 560 658 q 533 797 546 751 q 500 878 521 842 q 449 938 479 915 q 376 960 419 960 q 318 933 343 960 q 276 862 293 906 q 248 765 258 818 q 231 661 238 713 q 223 566 225 610 q 221 499 221 522 q 231 369 221 435 q 265 246 242 304 q 313 299 283 278 q 379 319 342 319 m 350 146 q 385 140 365 140 q 401 142 396 140 q 392 159 399 149 q 376 169 386 169 q 359 162 365 169 q 350 146 353 154 z "},"R":{"ha":769,"x_min":0,"x_max":807,"o":"m 8 -18 l 78 118 l 81 942 l 0 1093 l 325 1093 q 471 1081 400 1093 q 597 1035 542 1068 q 685 944 651 1001 q 718 797 718 886 q 654 576 718 660 q 471 433 590 492 l 681 140 l 807 0 l 701 0 l 429 -7 l 510 51 l 318 368 l 278 354 q 278 237 278 296 q 276 119 278 178 l 390 -15 l 285 -18 l 82 -21 l 8 -18 m 275 493 q 363 544 319 514 q 442 613 407 575 q 499 698 478 651 q 521 799 521 744 q 473 909 521 872 q 356 946 425 946 l 278 946 q 278 719 278 832 q 275 493 278 606 z "},"S":{"ha":674,"x_min":21,"x_max":651,"o":"m 25 801 q 46 913 25 858 q 104 1011 67 968 q 193 1080 142 1054 q 304 1106 244 1106 q 418 1079 364 1106 q 508 1006 472 1053 l 640 1110 l 618 728 l 617 664 l 325 954 q 282 940 301 954 q 249 904 263 925 q 229 859 236 883 q 222 814 222 835 q 254 724 222 764 q 333 645 286 683 q 437 569 381 607 q 540 483 493 531 q 619 378 588 436 q 651 242 651 319 q 635 144 651 190 q 590 63 619 97 q 516 9 560 29 q 418 -11 472 -11 q 278 21 346 -11 q 158 101 210 53 l 21 -37 l 21 368 l 392 133 q 422 142 408 133 q 445 163 436 150 q 460 192 454 176 q 465 224 465 208 q 433 307 465 268 q 351 385 400 346 q 245 465 303 424 q 139 557 188 507 q 58 667 90 607 q 25 801 25 726 z "},"T":{"ha":729,"x_min":17,"x_max":715,"o":"m 278 931 l 153 932 l 17 786 l 17 879 q 33 988 17 947 q 82 1049 50 1028 q 160 1077 114 1071 q 267 1083 207 1083 q 383 1081 325 1083 q 499 1078 440 1079 q 612 1071 569 1076 q 677 1045 654 1065 q 708 987 700 1025 q 715 881 715 949 l 715 786 l 575 928 l 474 928 l 468 114 l 586 -28 l 417 -24 l 289 -26 l 138 -25 l 272 113 l 278 931 z "},"U":{"ha":740,"x_min":-8,"x_max":747,"o":"m -8 1071 l 81 1072 l 239 1072 l 339 1071 l 260 938 q 258 853 258 896 q 258 769 258 811 q 260 524 258 646 q 261 278 261 401 q 265 214 261 247 q 283 153 269 181 q 319 109 296 126 q 382 92 343 92 q 446 114 422 92 q 483 169 469 136 q 500 238 496 201 q 504 306 504 275 l 519 933 l 404 1071 l 479 1072 l 747 1072 l 679 936 l 657 306 q 639 163 654 229 q 588 48 624 97 q 495 -29 553 -1 q 351 -57 438 -57 q 209 -28 264 -57 q 124 51 154 1 q 82 167 93 100 q 71 308 71 233 q 68 569 71 439 q 65 831 65 700 l 65 932 l -8 1071 z "},"V":{"ha":808,"x_min":0,"x_max":824,"o":"m 572 958 l 451 1099 l 824 1099 l 733 963 l 517 56 q 476 -10 506 10 q 403 -29 447 -29 q 327 -9 358 -29 q 285 56 296 11 l 68 932 l 0 1071 l 79 1072 l 242 1072 l 404 1071 l 274 936 l 424 263 l 572 958 z "},"W":{"ha":1063,"x_min":-39,"x_max":1094,"o":"m 422 906 l 422 904 l 671 906 l 756 392 l 833 940 l 689 1081 l 1094 1081 l 1007 946 q 933 513 968 729 q 851 82 897 297 q 814 18 842 36 q 742 0 786 0 q 671 19 696 0 q 636 83 646 38 l 525 640 q 479 363 501 501 q 428 86 457 225 q 392 19 417 38 q 318 0 367 0 q 244 21 274 0 q 207 88 214 42 l 72 957 l -39 1099 l 75 1097 l 357 1097 l 254 961 l 332 378 l 422 906 z "},"X":{"ha":828,"x_min":-8,"x_max":867,"o":"m 299 540 l 101 942 l 6 1079 l 90 1081 l 276 1081 l 392 1079 l 318 947 l 419 739 l 518 953 l 440 1090 l 560 1090 l 743 1088 l 826 1090 l 704 953 l 506 571 l 740 114 l 867 -7 l 528 -24 l 426 -24 l 517 117 l 388 369 l 264 133 l 379 0 l 265 -4 l 76 -7 l -8 -7 l 85 132 l 299 540 z "},"Y":{"ha":704,"x_min":-11,"x_max":739,"o":"m 471 958 l 368 1099 l 739 1099 l 636 963 q 613 894 631 943 q 574 782 596 844 q 530 651 553 719 q 488 523 507 582 q 455 422 468 464 q 442 372 442 381 q 440 244 439 308 q 439 115 440 179 l 546 -22 l 431 -22 l 240 -25 l 125 -24 l 246 114 q 249 246 247 181 q 250 378 250 311 q 238 419 250 381 q 208 517 226 458 q 167 645 189 576 q 124 776 144 714 q 89 886 104 839 q 69 949 74 933 l -11 1088 l 72 1086 l 263 1086 l 353 1088 l 271 951 l 361 603 l 471 958 z "},"Z":{"ha":632,"x_min":14,"x_max":649,"o":"m 607 29 l 494 21 q 300 8 397 14 q 106 3 203 3 q 40 24 67 3 q 14 85 14 44 q 33 165 14 126 l 394 921 l 171 915 l 14 775 l 69 1081 q 153 1084 110 1083 q 243 1085 197 1085 q 397 1083 321 1085 q 544 1082 474 1082 q 601 1066 581 1082 q 621 1013 621 1050 q 619 974 621 994 q 611 936 618 953 l 244 169 l 485 185 l 649 372 l 607 29 z "},"[":{"ha":419,"x_min":53,"x_max":367,"o":"m 235 32 q 286 29 264 32 q 323 17 308 26 q 344 -11 338 8 q 351 -64 351 -31 l 351 -136 l 276 -136 q 202 -133 242 -136 q 129 -118 163 -131 q 74 -79 96 -106 q 53 -6 53 -53 l 53 1025 q 75 1100 53 1074 q 131 1139 97 1126 q 203 1153 164 1151 q 278 1156 243 1156 l 367 1156 l 367 1079 q 358 1036 367 1053 q 333 1011 349 1019 q 297 1000 317 1003 q 254 997 276 997 l 249 997 l 235 32 z "},"\\":{"ha":536,"x_min":21,"x_max":547,"o":"m 96 1121 q 135 1117 119 1121 q 163 1104 151 1113 q 185 1083 175 1096 q 204 1050 194 1069 q 227 992 210 1040 q 270 872 244 944 q 326 711 296 800 q 387 530 356 622 q 447 350 418 438 q 497 193 475 263 q 533 79 519 124 q 547 31 547 35 l 547 -39 l 475 -39 q 410 -24 438 -39 q 372 31 383 -8 q 343 108 363 54 q 297 234 324 161 q 240 392 271 307 q 178 565 208 478 q 119 735 147 653 q 69 883 90 817 q 34 994 47 950 q 21 1050 21 1039 l 21 1121 l 96 1121 z "},"]":{"ha":426,"x_min":36,"x_max":350,"o":"m 168 988 q 117 990 139 988 q 81 1002 96 993 q 59 1031 67 1011 q 51 1083 51 1050 l 51 1156 l 126 1156 q 201 1153 163 1156 q 274 1138 240 1150 q 328 1099 307 1125 q 350 1025 350 1072 l 350 -6 q 328 -81 350 -54 q 274 -119 307 -107 q 201 -134 240 -132 q 125 -136 161 -136 l 36 -136 l 36 -60 q 45 -17 36 -33 q 70 8 54 0 q 106 19 86 17 q 149 22 126 22 l 154 22 l 168 988 z "},"^":{"ha":628,"x_min":46,"x_max":579,"o":"m 218 690 l 46 685 l 192 974 q 213 1013 201 993 q 240 1049 225 1032 q 273 1076 254 1065 q 315 1086 292 1086 q 355 1077 339 1086 q 386 1049 371 1068 l 579 703 l 396 685 l 311 849 l 218 690 z "},"_":{"ha":554,"x_min":74,"x_max":504,"o":"m 74 -10 l 504 -10 l 504 -167 l 74 -167 l 74 -10 z "},"`":{"ha":347,"x_min":46,"x_max":301,"o":"m 203 779 l 46 949 l 194 968 l 301 793 l 203 779 z "},"a":{"ha":613,"x_min":17,"x_max":619,"o":"m 297 738 q 470 688 406 738 q 539 525 535 638 l 553 136 l 619 4 l 522 3 q 441 15 478 3 q 389 75 404 26 q 324 10 364 31 q 235 -10 285 -10 q 149 4 189 -10 q 79 45 108 18 q 33 110 50 72 q 17 196 17 149 q 56 306 17 263 q 151 382 96 349 q 265 447 206 415 q 361 519 324 478 q 344 590 360 560 q 282 619 329 619 l 32 432 l 32 558 q 60 633 32 600 q 130 690 89 667 q 217 725 171 713 q 297 738 263 738 m 357 365 q 310 331 339 351 q 255 288 282 311 q 208 239 228 264 q 189 189 189 214 q 209 149 189 163 q 253 136 229 136 q 301 161 282 136 q 333 221 321 186 q 351 292 346 256 q 357 350 357 328 l 357 365 z "},"b":{"ha":642,"x_min":-24,"x_max":615,"o":"m 242 926 q 240 805 242 865 q 235 683 238 744 q 298 728 263 711 q 374 744 333 744 q 483 709 438 744 q 558 621 529 674 q 601 507 588 568 q 615 393 615 446 q 605 259 615 329 q 565 129 594 189 q 485 31 536 69 q 354 -8 435 -8 q 273 11 313 -8 q 206 63 233 31 l 204 47 q 188 19 203 29 q 153 6 172 10 q 113 1 133 1 q 78 0 92 0 l -24 0 l 57 121 l 67 921 l -24 1051 l 53 1054 l 165 1054 q 207 1042 192 1054 q 230 1010 222 1029 q 240 969 238 992 q 242 926 242 947 m 435 369 q 431 428 435 389 q 418 505 428 467 q 392 572 408 543 q 347 600 375 600 q 313 589 331 600 q 281 562 296 578 q 255 528 265 546 q 243 494 244 510 q 241 463 240 479 q 242 429 242 446 q 242 353 242 403 q 252 256 243 304 q 282 171 261 207 q 344 135 303 135 q 394 163 376 135 q 421 231 411 192 q 433 308 431 269 q 435 369 435 347 z "},"c":{"ha":525,"x_min":14,"x_max":508,"o":"m 476 824 l 476 457 l 296 617 q 259 601 275 617 q 231 560 243 585 q 212 503 219 535 q 200 442 204 472 q 194 386 196 413 q 192 346 192 360 q 195 281 192 319 q 210 209 199 243 q 244 151 222 175 q 304 126 267 126 l 508 331 l 507 254 q 497 151 507 199 q 462 67 486 103 q 398 13 438 32 q 300 -7 358 -7 q 163 24 218 -7 q 75 107 108 56 q 28 225 42 158 q 14 363 14 292 q 26 498 14 429 q 67 622 38 567 q 150 713 97 678 q 283 749 203 749 q 324 742 310 749 q 364 715 339 736 l 476 824 z "},"d":{"ha":639,"x_min":21,"x_max":657,"o":"m 429 72 q 365 15 403 39 q 283 -8 328 -8 q 151 27 203 -8 q 71 117 100 63 q 31 240 42 172 q 21 375 21 308 q 35 486 21 422 q 76 607 49 550 q 147 704 104 664 q 250 744 190 744 q 331 731 293 744 q 401 689 369 717 l 406 921 l 288 1054 l 494 1054 q 567 1028 551 1054 q 583 949 583 1001 l 578 121 l 657 0 l 544 0 q 513 1 532 0 q 477 6 494 1 q 447 21 460 11 q 432 49 433 31 l 429 72 m 199 351 q 201 293 199 329 q 212 222 203 257 q 239 160 221 186 q 289 135 257 135 q 346 158 325 135 q 378 214 367 181 q 392 283 389 247 q 396 346 396 319 q 394 420 396 383 q 393 494 393 457 q 383 531 393 513 q 358 565 374 550 q 324 590 343 581 q 288 600 306 600 q 244 569 261 600 q 216 496 226 538 q 202 413 206 454 q 199 351 199 371 z "},"e":{"ha":549,"x_min":15,"x_max":535,"o":"m 297 749 q 383 735 343 749 q 454 695 424 721 q 503 632 485 669 q 521 546 521 594 q 488 438 521 482 q 405 361 454 394 q 301 301 356 328 q 203 244 246 274 q 215 204 207 225 q 235 166 222 183 q 265 138 247 149 q 306 126 282 126 l 535 319 l 535 244 q 518 148 535 193 q 471 68 501 103 q 397 13 440 33 q 301 -7 354 -7 q 165 24 219 -7 q 76 107 110 56 q 29 225 43 158 q 15 363 15 292 q 28 503 15 433 q 72 626 40 572 q 158 715 104 681 q 297 749 213 749 m 193 382 q 239 408 210 392 q 297 445 268 425 q 346 488 325 465 q 367 533 367 511 q 349 591 367 565 q 296 617 331 617 q 241 589 261 617 q 210 524 221 561 q 197 447 200 486 q 193 382 193 407 z "},"f":{"ha":485,"x_min":0,"x_max":558,"o":"m 115 113 q 118 234 117 174 q 119 356 119 294 q 119 476 119 417 q 118 597 119 536 l 0 740 l 79 743 l 117 743 q 124 866 117 803 q 156 981 132 929 q 224 1065 179 1032 q 346 1099 269 1099 q 428 1086 390 1099 q 496 1049 467 1074 q 542 989 525 1025 q 558 907 558 953 l 556 822 l 354 958 q 326 942 336 958 q 312 903 317 925 q 306 859 307 882 q 306 824 306 836 q 306 783 306 804 q 307 743 307 763 l 432 743 l 428 600 l 307 600 q 306 432 307 515 q 306 264 306 349 q 306 188 306 226 q 307 113 306 150 l 440 -12 l 244 -14 l 97 -12 l 10 -12 l 115 113 z "},"g":{"ha":604,"x_min":22,"x_max":642,"o":"m 22 444 q 32 536 22 492 q 63 619 42 581 q 119 686 85 657 q 200 732 153 715 q 245 742 222 739 q 292 749 268 744 l 642 794 l 518 651 q 556 556 546 607 q 567 451 567 504 q 557 343 567 396 q 523 248 547 290 q 458 176 499 206 q 356 138 417 147 q 323 134 347 136 q 273 128 299 132 q 228 119 247 125 q 208 101 208 113 q 235 92 208 92 q 274 94 251 92 q 319 101 296 97 q 365 108 343 106 q 403 111 388 111 q 478 104 442 111 q 541 79 514 97 q 585 31 568 61 q 601 -43 601 1 q 570 -150 601 -104 q 491 -226 539 -196 q 385 -272 443 -257 q 275 -287 328 -287 q 198 -280 242 -287 q 116 -254 154 -272 q 51 -207 78 -236 q 25 -135 25 -178 q 53 -55 25 -90 q 115 4 81 -19 q 83 42 96 19 q 69 90 69 65 q 82 139 69 117 q 114 178 94 161 q 68 233 86 201 q 40 299 50 264 q 26 372 29 335 q 22 444 22 410 m 200 421 q 203 372 200 400 q 215 317 206 343 q 242 272 225 290 q 288 254 258 254 q 342 275 321 254 q 376 326 364 296 q 392 390 388 356 q 397 449 397 424 q 394 503 397 474 q 379 560 390 533 q 348 603 368 586 q 296 621 328 621 q 245 598 264 621 q 216 544 226 575 q 203 478 206 513 q 200 421 200 444 m 250 -31 q 225 -61 236 -46 q 208 -88 215 -74 q 200 -115 200 -103 q 210 -140 200 -131 q 235 -156 221 -150 q 265 -164 250 -161 q 292 -167 281 -167 q 339 -160 314 -167 q 385 -139 364 -153 q 419 -105 406 -125 q 433 -60 433 -85 q 426 -42 433 -49 q 407 -33 418 -36 q 384 -30 396 -31 q 364 -29 372 -29 l 324 -29 q 287 -30 304 -29 q 250 -31 269 -31 z "},"h":{"ha":661,"x_min":-18,"x_max":676,"o":"m 68 922 l -18 1057 l 88 1060 l 176 1060 q 202 1053 189 1060 q 226 1038 215 1047 q 245 1015 238 1028 q 253 990 253 1003 q 251 836 253 913 q 249 682 250 760 q 306 728 272 707 q 375 750 339 750 q 467 734 425 750 q 539 688 508 718 q 586 617 569 658 q 603 525 603 575 q 603 323 603 424 q 604 121 603 222 l 676 -6 l 585 -6 l 356 0 l 419 119 l 418 538 q 361 596 418 596 q 327 588 343 596 q 297 567 311 579 q 270 539 282 554 q 247 511 258 524 q 251 121 247 317 l 346 0 l 82 -4 l -11 0 l 69 119 l 68 922 z "},"i":{"ha":342,"x_min":-11,"x_max":386,"o":"m 169 803 q 124 805 144 803 q 87 815 103 807 q 63 840 71 824 q 54 888 54 857 q 84 969 54 946 q 169 992 114 992 q 253 968 222 992 q 283 888 283 944 q 275 842 283 858 q 251 816 267 825 q 215 805 236 807 q 169 803 194 803 m 131 740 q 176 740 151 740 q 222 735 200 740 q 259 715 244 729 q 274 671 274 700 q 271 444 274 557 q 268 218 268 332 l 268 135 l 386 0 l 117 -4 l -11 -4 l 101 132 l 100 603 l 6 740 l 131 740 z "},"j":{"ha":347,"x_min":-74,"x_max":296,"o":"m 8 -275 q -49 -250 -24 -275 q -74 -193 -74 -225 l -74 -119 l 36 -132 q 80 -119 64 -132 q 104 -85 96 -106 q 115 -40 113 -64 q 117 4 117 -17 q 113 297 117 151 q 110 589 110 442 l -12 731 l 88 731 q 159 731 124 731 q 231 732 194 732 q 276 707 267 732 q 288 653 286 682 q 289 482 290 567 q 290 311 288 397 q 294 158 292 233 q 296 4 296 82 q 219 -204 296 -133 q 8 -275 143 -275 m 178 803 q 132 805 153 803 q 95 815 111 807 q 71 840 79 824 q 63 888 63 857 q 92 969 63 946 q 178 992 122 992 q 261 968 231 992 q 292 888 292 944 q 283 842 292 858 q 260 816 275 825 q 224 805 244 807 q 178 803 203 803 z "},"k":{"ha":706,"x_min":-24,"x_max":739,"o":"m 68 922 l -17 1057 l 88 1060 l 176 1060 q 202 1053 189 1060 q 226 1038 215 1047 q 245 1015 238 1028 q 253 990 253 1003 q 251 724 253 856 q 247 457 249 592 l 390 614 l 336 729 l 701 731 l 460 474 l 618 71 l 739 -8 l 375 -8 l 444 51 l 354 361 l 247 247 l 251 133 l 340 0 l 215 -1 l -24 -7 l 69 132 l 68 922 z "},"l":{"ha":335,"x_min":-4,"x_max":329,"o":"m 72 922 l 4 1060 l 181 1060 q 206 1053 193 1060 q 231 1038 219 1047 q 249 1015 242 1028 q 257 990 257 1003 q 255 770 257 879 q 253 550 253 661 q 253 342 253 446 q 256 133 253 238 l 329 0 l 86 -4 l -4 -1 l 74 132 l 72 922 z "},"m":{"ha":982,"x_min":1,"x_max":985,"o":"m 58 603 l 14 740 l 88 740 q 138 741 113 740 q 183 735 163 742 q 218 714 204 729 q 236 667 232 699 q 297 724 263 697 q 375 750 332 750 q 485 722 435 750 q 563 642 535 694 q 594 681 576 661 q 631 715 611 700 q 673 740 650 731 q 721 750 696 750 q 810 733 771 750 q 878 686 850 717 q 920 615 906 656 q 935 525 935 574 q 935 329 935 426 q 938 133 935 232 l 985 0 l 914 -6 l 689 0 l 751 133 l 749 538 q 742 578 749 561 q 707 596 736 596 q 671 587 688 596 q 640 565 654 578 q 613 535 625 551 q 589 506 600 519 q 589 319 589 413 q 592 133 589 226 l 644 -7 l 488 -4 l 365 0 l 406 133 l 404 538 q 397 578 404 561 q 361 596 390 596 q 326 587 343 596 q 293 565 308 578 q 265 535 278 551 q 243 506 253 519 q 247 360 247 433 q 246 247 247 303 q 246 135 244 192 l 332 0 l 82 -4 l 1 -7 l 60 133 l 58 603 z "},"n":{"ha":671,"x_min":-12,"x_max":685,"o":"m 69 603 l -12 740 l 175 740 q 226 718 203 740 q 249 668 249 696 q 310 724 275 697 q 386 750 344 750 q 478 733 436 750 q 550 688 519 717 q 598 617 581 658 q 615 525 615 575 l 615 407 q 616 270 615 338 q 618 133 617 203 l 685 0 l 596 -6 l 372 0 l 432 133 l 431 538 q 372 596 431 596 q 337 587 354 596 q 304 565 319 578 q 276 535 289 551 q 254 506 264 519 q 258 360 258 433 q 257 247 258 303 q 257 135 256 192 l 351 0 l 93 -4 l 0 0 l 71 133 l 69 603 z "},"o":{"ha":590,"x_min":24,"x_max":568,"o":"m 24 363 q 37 499 24 431 q 83 624 50 568 q 169 714 115 679 q 303 749 222 749 q 433 714 382 749 q 515 625 485 679 q 556 503 544 571 q 568 371 568 436 q 555 235 568 303 q 510 114 542 168 q 425 26 478 60 q 292 -7 372 -7 q 162 26 214 -7 q 79 113 110 60 q 36 231 49 165 q 24 363 24 297 m 201 340 q 204 284 201 319 q 217 213 207 249 q 243 152 226 178 q 289 126 260 126 q 345 155 325 126 q 375 222 365 183 q 388 302 385 261 q 390 368 390 343 q 388 433 390 392 q 377 515 386 475 q 349 586 368 556 q 297 617 331 617 q 259 601 275 617 q 233 559 243 585 q 216 502 222 533 q 206 440 210 471 q 202 382 203 408 q 201 340 201 356 z "},"p":{"ha":635,"x_min":-7,"x_max":611,"o":"m 232 -139 l 382 -272 l 0 -272 l 54 -139 q 56 -22 56 -81 q 56 94 56 36 q 55 358 56 228 q 54 621 54 489 l -7 740 l 101 742 q 140 740 122 742 q 172 730 158 738 q 194 708 185 722 q 204 669 203 693 q 268 727 231 704 q 350 750 306 750 q 483 715 432 750 q 562 624 533 679 q 601 500 590 568 q 611 367 611 432 q 606 295 611 335 q 588 215 600 256 q 556 134 575 174 q 513 65 538 94 q 455 16 488 35 q 382 -3 422 -3 q 303 10 342 -3 q 233 51 264 24 l 232 -139 m 433 390 q 431 449 433 413 q 420 520 429 485 q 393 581 411 556 q 343 607 375 607 q 288 583 308 607 q 256 526 267 560 q 240 457 244 493 q 236 396 236 421 q 238 322 236 358 q 240 247 240 285 q 250 210 240 229 q 274 176 260 190 q 308 151 289 161 q 346 142 328 142 q 390 174 372 142 q 417 247 407 206 q 430 330 426 289 q 433 390 433 371 z "},"q":{"ha":643,"x_min":19,"x_max":657,"o":"m 567 -139 l 657 -274 l 581 -272 l 219 -272 l 394 -139 q 398 -44 397 -90 q 400 51 399 3 q 337 6 372 24 q 261 -11 301 -11 q 151 24 197 -11 q 76 113 106 60 q 33 227 47 165 q 19 342 19 289 q 30 476 19 406 q 69 606 40 547 q 148 703 97 665 q 279 742 199 742 q 360 722 319 742 q 426 672 400 701 q 442 710 431 697 q 471 728 454 722 q 508 734 488 733 q 549 735 528 735 l 640 732 l 576 614 l 567 -139 m 197 364 q 201 306 197 344 q 213 230 204 268 q 240 163 222 192 q 285 135 257 135 q 319 145 301 135 q 352 172 338 156 q 377 206 367 188 q 389 240 388 224 q 392 310 392 275 q 393 379 393 344 q 389 440 393 403 q 374 513 385 478 q 342 574 363 549 q 289 600 322 600 q 239 572 257 600 q 211 504 221 543 q 199 426 201 465 q 197 364 197 386 z "},"r":{"ha":458,"x_min":-18,"x_max":453,"o":"m 60 603 l -12 740 l 165 740 q 215 719 192 740 q 239 671 239 697 q 281 731 254 704 q 350 758 307 758 q 430 727 407 758 q 453 656 453 696 l 450 533 l 351 606 q 313 584 332 606 q 280 533 294 563 q 256 474 265 504 q 246 428 247 444 q 242 333 243 381 q 242 238 242 285 q 242 185 242 211 q 243 132 243 158 l 417 -1 l 303 1 l 83 -1 l -18 -1 l 61 132 l 60 603 z "},"s":{"ha":511,"x_min":15,"x_max":490,"o":"m 24 532 q 40 615 24 576 q 86 682 57 654 q 154 726 115 710 q 238 742 193 742 q 299 733 269 742 q 354 704 329 724 l 467 785 l 467 458 l 258 596 q 216 584 235 596 q 197 546 197 572 q 219 501 197 522 q 273 458 240 481 q 344 410 306 436 q 415 349 382 383 q 469 272 447 315 q 490 171 490 228 q 472 98 490 132 q 424 39 453 64 q 358 0 394 14 q 283 -14 321 -14 q 206 3 243 -14 q 139 44 169 19 l 17 -31 l 15 40 l 17 211 l 17 294 l 261 133 q 296 147 279 133 q 313 181 313 161 q 291 228 313 207 q 238 272 269 250 q 168 318 206 294 q 99 372 131 342 q 45 442 67 403 q 24 532 24 481 z "},"t":{"ha":499,"x_min":-43,"x_max":485,"o":"m 75 308 q 78 457 75 383 q 81 606 81 531 l -43 601 l 274 960 l 268 740 l 446 740 l 382 606 l 265 606 q 263 515 264 561 q 263 425 263 469 l 263 240 q 263 206 263 228 q 268 164 264 185 q 282 128 272 143 q 310 113 292 113 l 479 279 l 485 149 q 438 26 485 65 q 313 -12 392 -12 q 189 13 236 -12 q 117 83 142 39 q 83 186 92 128 q 75 308 75 244 z "},"u":{"ha":622,"x_min":-3,"x_max":632,"o":"m 233 197 q 293 139 233 139 q 328 148 311 139 q 360 170 344 157 q 388 199 375 183 q 411 226 401 214 q 411 414 411 321 q 408 601 411 507 l 333 740 l 421 738 l 564 739 l 631 736 l 586 601 l 588 132 l 632 -6 l 540 -6 q 497 -3 518 -6 q 460 6 476 -1 q 432 29 443 14 q 415 71 421 44 q 356 12 392 39 q 279 -15 321 -15 q 187 1 229 -15 q 114 46 144 17 q 66 117 83 75 q 49 210 49 158 l 49 328 q 48 465 49 397 q 46 601 47 532 l -3 739 l 68 740 l 149 739 l 300 739 l 232 601 l 233 197 z "},"v":{"ha":631,"x_min":-15,"x_max":653,"o":"m 426 621 l 332 731 l 435 733 l 576 733 l 653 731 l 574 625 l 415 35 q 374 -16 404 -3 q 310 -29 344 -29 q 242 -16 274 -29 q 200 36 211 -3 l 46 621 l -15 731 l 57 732 l 214 732 l 307 731 l 229 626 l 322 211 l 426 621 z "},"w":{"ha":844,"x_min":-21,"x_max":844,"o":"m 422 396 l 363 65 q 322 12 356 24 q 253 0 289 0 q 185 11 217 0 q 146 64 153 22 l 57 624 l -21 735 l 56 736 l 211 736 l 289 735 l 231 631 l 268 300 q 297 457 283 379 q 326 614 310 535 q 372 673 338 661 q 449 685 407 685 q 517 670 488 685 q 554 613 547 656 l 601 303 l 647 625 l 578 735 l 657 738 l 782 738 l 844 740 l 796 629 l 689 63 q 673 31 685 43 q 644 13 661 19 q 609 3 628 6 q 574 0 590 0 q 515 15 542 0 q 485 64 489 29 l 485 63 l 422 396 z "},"x":{"ha":594,"x_min":-25,"x_max":625,"o":"m 181 404 l 76 622 l -17 735 l 74 736 l 229 736 l 303 735 l 271 629 l 319 529 l 365 628 l 329 735 l 482 736 l 560 735 l 614 735 l 522 626 l 403 389 l 550 108 l 625 1 l 554 -1 l 293 -4 l 347 108 l 269 274 l 218 111 l 271 -3 l 190 1 l 76 0 l -25 1 l 63 113 l 181 404 z "},"y":{"ha":636,"x_min":-25,"x_max":640,"o":"m 574 603 q 574 327 574 464 q 575 51 575 190 q 560 -80 575 -17 q 511 -191 544 -143 q 424 -267 478 -239 q 293 -296 371 -296 q 208 -283 250 -296 q 132 -247 165 -271 q 78 -187 99 -224 q 57 -103 57 -151 l 57 18 l 263 -172 q 324 -151 300 -172 q 363 -99 349 -129 q 383 -37 378 -69 q 389 18 389 -4 l 389 67 q 334 19 365 40 q 267 -1 303 -1 q 174 15 217 -1 q 101 60 132 31 q 53 131 71 89 q 36 224 36 172 l 36 342 q 35 473 36 408 q 33 604 33 538 l -25 739 l 56 740 l 290 736 l 219 603 l 221 210 q 281 153 221 153 q 315 161 299 153 q 344 182 331 169 q 369 210 357 194 q 389 239 381 225 l 389 256 q 389 429 389 343 q 388 603 389 515 l 307 738 l 408 738 l 551 739 l 640 738 l 574 603 z "},"z":{"ha":501,"x_min":14,"x_max":488,"o":"m 444 18 l 83 3 q 33 19 53 3 q 14 67 14 35 q 28 122 14 94 l 261 590 l 128 583 l 14 496 l 43 729 l 415 733 q 461 716 450 733 q 472 667 472 699 q 471 644 472 656 q 465 621 469 632 l 465 622 l 231 156 l 371 165 l 488 283 l 444 18 z "},"{":{"ha":507,"x_min":79,"x_max":461,"o":"m 253 482 q 283 417 272 456 q 299 335 293 378 q 310 247 306 292 q 320 161 314 201 q 338 89 326 121 q 369 40 349 57 q 399 22 383 29 q 429 7 415 15 q 452 -14 443 -1 q 461 -49 461 -26 l 461 -136 l 379 -136 q 367 -135 372 -136 q 354 -133 361 -135 q 244 -85 286 -118 q 181 -6 203 -51 q 151 97 158 40 q 144 214 144 153 q 145 255 144 232 q 145 301 146 278 q 141 345 144 324 q 129 382 138 367 q 113 406 121 394 q 97 429 104 418 q 84 453 89 440 q 79 483 79 467 q 85 517 79 500 q 100 549 92 533 q 117 581 108 565 q 129 611 125 596 q 142 715 144 664 q 140 822 140 767 q 149 931 140 871 q 180 1044 157 992 q 244 1133 203 1097 q 349 1168 285 1168 l 435 1168 l 435 1078 q 422 1034 435 1047 q 385 1006 408 1021 q 341 949 356 986 q 319 864 326 911 q 310 764 313 817 q 302 660 307 711 q 286 562 297 608 q 253 482 275 515 z "},"|":{"ha":450,"x_min":132,"x_max":290,"o":"m 136 -139 l 132 1157 l 286 1157 l 290 -139 l 136 -139 z "},"}":{"ha":465,"x_min":51,"x_max":433,"o":"m 260 550 q 230 615 240 576 q 213 697 219 654 q 203 785 207 740 q 192 871 199 831 q 175 943 186 911 q 143 992 164 975 q 113 1010 129 1003 q 83 1025 97 1017 q 60 1046 69 1033 q 51 1081 51 1058 l 51 1168 l 133 1168 q 146 1167 140 1168 q 158 1165 151 1167 q 269 1117 228 1150 q 332 1038 310 1083 q 361 935 354 992 q 368 818 368 879 q 367 777 368 800 q 367 731 367 754 q 372 687 368 708 q 383 650 375 665 q 400 626 392 638 q 416 603 408 614 q 428 578 424 592 q 433 549 433 565 q 427 515 433 532 q 413 483 421 499 q 396 451 404 467 q 383 421 388 436 q 370 317 368 368 q 372 210 372 265 q 364 101 372 161 q 333 -12 356 40 q 269 -101 310 -65 q 164 -136 228 -136 l 78 -136 l 78 -46 q 92 -2 78 -15 q 128 26 106 11 q 172 84 157 47 q 193 168 186 121 q 203 268 200 215 q 210 372 206 321 q 226 470 215 424 q 260 550 238 517 z "},"~":{"ha":801,"x_min":57,"x_max":743,"o":"m 276 429 q 241 418 256 429 q 212 393 226 407 q 183 368 197 379 q 147 357 168 357 l 57 357 l 57 442 q 83 495 57 468 q 147 544 110 522 q 222 578 183 565 q 283 592 260 592 q 358 577 324 592 q 420 544 392 563 q 472 512 449 526 q 511 497 494 497 q 544 507 529 497 q 576 528 560 517 q 608 549 592 539 q 646 558 625 558 l 743 558 l 743 476 q 715 424 743 451 q 648 376 686 397 q 570 340 610 354 q 508 326 531 326 q 438 342 469 326 q 380 378 407 358 q 328 413 353 397 q 276 429 304 429 z "},"¡":{"ha":463,"x_min":107,"x_max":353,"o":"m 319 -53 q 292 -128 319 -106 q 214 -150 264 -150 q 137 -128 167 -150 q 110 -57 107 -107 l 142 714 l 317 717 l 319 -53 m 353 900 q 316 822 353 850 q 232 794 279 794 q 150 823 186 794 q 114 900 114 851 q 149 981 114 956 q 235 1007 183 1007 q 319 981 286 1007 q 353 900 353 954 z "},"¢":{"ha":574,"x_min":39,"x_max":533,"o":"m 501 917 l 501 550 l 321 710 q 284 694 300 710 q 256 653 268 678 q 237 597 244 628 q 225 535 229 565 q 219 480 221 506 q 217 439 217 454 q 220 374 217 413 q 235 302 224 336 q 269 244 247 268 q 329 219 292 219 l 533 424 l 532 347 q 523 247 532 293 q 492 167 514 201 q 435 113 469 133 q 347 88 400 92 l 347 -44 l 219 -44 l 219 103 q 133 157 168 121 q 78 240 99 193 q 48 342 57 286 q 39 456 39 397 q 47 570 39 513 q 76 679 56 628 q 131 770 96 731 q 219 828 165 810 l 219 1007 l 347 1007 l 347 836 q 366 826 357 833 q 389 808 375 819 l 501 917 z "},"£":{"ha":760,"x_min":44,"x_max":696,"o":"m 100 776 q 123 894 100 839 q 187 992 146 950 q 282 1058 228 1033 q 399 1082 336 1082 q 510 1058 460 1082 q 599 992 561 1033 q 657 897 636 950 q 678 785 678 843 l 678 592 l 407 919 q 357 906 378 919 q 323 870 336 892 q 303 822 310 849 q 297 771 297 796 q 320 665 297 717 q 364 554 343 613 l 515 556 l 515 401 l 393 400 q 378 303 392 351 q 336 215 364 256 q 383 205 361 213 q 425 190 404 197 q 467 176 446 182 q 515 169 489 169 q 583 183 546 169 q 651 196 621 196 l 696 196 l 696 125 q 680 71 696 92 q 639 38 664 50 q 585 20 614 25 q 529 15 556 15 q 476 22 503 15 q 424 37 450 29 q 373 51 399 44 q 319 58 347 58 q 258 51 296 58 q 181 37 221 44 q 105 22 142 29 q 44 15 68 15 l 44 169 q 106 203 76 189 q 159 237 136 217 q 197 289 182 257 q 211 376 211 321 q 210 389 211 383 q 210 400 210 394 l 86 399 l 86 553 l 164 553 q 120 660 140 606 q 100 776 100 715 z "},"¤":{"ha":738,"x_min":72,"x_max":682,"o":"m 138 331 q 98 431 110 375 q 86 543 86 486 q 101 653 86 600 q 143 750 115 706 l 72 831 l 197 946 l 257 863 q 322 887 289 879 q 388 894 356 894 q 503 868 446 894 l 560 943 l 682 819 l 614 757 q 656 649 642 708 q 669 529 669 590 q 657 413 669 471 q 617 308 644 356 l 674 229 l 543 136 l 494 213 q 442 199 468 201 q 388 196 415 196 q 316 201 351 196 q 247 225 281 207 l 203 142 l 76 240 l 138 331 m 378 321 q 436 340 410 321 q 483 391 463 360 q 514 462 503 422 q 525 542 525 501 q 515 622 525 583 q 485 690 504 660 q 440 739 467 721 q 378 757 413 757 q 317 738 346 757 q 268 689 289 719 q 235 619 247 658 q 224 540 224 581 q 235 456 224 496 q 267 385 247 415 q 316 338 288 356 q 378 321 344 321 z "},"¥":{"ha":722,"x_min":0,"x_max":740,"o":"m 476 914 l 375 1047 l 740 1047 l 639 918 q 616 849 633 899 q 576 738 599 800 q 531 610 554 676 q 488 486 507 543 l 601 486 l 601 363 l 449 363 q 447 354 447 358 l 447 342 l 601 342 l 601 217 l 444 217 l 444 108 l 550 -22 l 436 -22 l 249 -25 l 135 -24 l 254 107 q 255 162 254 135 q 257 217 256 189 l 94 217 l 94 342 l 258 342 l 258 363 l 94 363 l 94 486 l 218 486 q 178 608 200 542 q 135 736 156 675 q 99 844 115 797 q 79 904 83 890 l 0 1036 l 82 1035 l 271 1035 l 360 1036 l 278 907 l 368 574 l 476 914 z "},"¦":{"ha":378,"x_min":86,"x_max":293,"o":"m 90 -139 l 89 453 l 290 457 l 293 -139 l 90 -139 m 89 631 l 86 1157 l 289 1157 l 293 629 l 89 631 z "},"§":{"ha":724,"x_min":56,"x_max":699,"o":"m 113 879 q 133 963 113 922 q 188 1036 153 1004 q 270 1088 222 1068 q 374 1107 318 1107 q 480 1087 429 1107 q 565 1031 531 1067 l 689 1110 l 668 825 l 667 776 l 393 993 q 353 983 371 993 q 322 956 335 972 q 303 923 310 940 q 297 890 297 906 q 327 822 297 853 q 401 763 357 792 q 498 706 446 735 q 594 642 550 678 q 669 563 639 607 q 699 461 699 519 q 667 358 699 404 q 574 289 635 311 q 626 220 606 257 q 647 136 647 183 q 632 65 647 99 q 588 5 617 31 q 519 -36 560 -21 q 428 -51 479 -51 q 297 -28 361 -51 q 185 33 233 -4 l 56 -72 l 69 244 l 404 56 q 453 78 435 56 q 472 124 472 101 q 442 185 472 157 q 365 243 411 214 q 266 303 319 272 q 167 372 213 335 q 90 453 121 408 q 60 553 60 497 q 90 658 60 607 q 174 740 121 708 q 129 805 146 771 q 113 879 113 839 m 456 381 q 506 403 488 381 q 525 449 525 426 q 503 501 525 476 q 448 549 482 525 q 372 597 414 572 q 288 649 329 622 q 256 608 267 632 q 244 565 244 583 q 280 490 244 522 q 367 428 315 458 l 456 381 z "},"¨":{"ha":490,"x_min":60,"x_max":442,"o":"m 60 883 q 85 946 60 925 q 151 967 111 967 q 216 946 192 967 q 240 883 240 925 q 215 822 240 843 q 151 801 190 801 q 87 822 114 801 q 60 883 60 843 m 261 883 q 287 946 261 925 q 353 967 313 967 q 417 946 393 967 q 442 883 442 925 q 417 822 442 843 q 353 801 392 801 q 288 822 315 801 q 261 883 261 843 z "},"©":{"ha":1013,"x_min":74,"x_max":956,"o":"m 506 -47 q 296 -8 379 -47 q 163 99 213 31 q 94 263 114 168 q 74 471 74 358 q 94 681 74 585 q 166 849 115 778 q 301 959 217 919 q 513 999 386 999 q 722 960 638 999 q 859 852 807 921 q 933 688 911 783 q 956 479 956 592 q 933 267 956 364 q 858 101 910 171 q 719 -8 806 31 q 506 -47 633 -47 m 506 38 q 756 153 678 38 q 835 479 835 268 q 819 638 835 560 q 767 776 804 715 q 669 874 731 836 q 513 911 607 911 q 359 872 421 911 q 260 771 297 833 q 206 631 222 708 q 190 475 190 553 q 202 321 190 399 q 248 180 214 243 q 344 77 282 117 q 506 38 406 38 m 492 99 q 387 134 426 99 q 326 222 347 169 q 299 335 306 275 q 292 446 292 396 q 294 520 292 478 q 305 606 297 563 q 326 692 313 650 q 361 768 339 735 q 415 822 383 801 q 492 842 447 842 q 543 831 518 842 q 586 801 568 821 l 669 854 l 664 640 l 664 578 l 506 740 q 474 722 488 740 q 450 674 460 703 q 434 610 440 646 q 424 541 428 575 q 418 480 419 507 q 417 439 417 453 q 420 378 417 418 q 433 299 424 339 q 460 230 442 260 q 507 200 478 200 l 679 356 l 679 99 l 590 140 q 492 99 553 99 z "},"ª":{"ha":400,"x_min":32,"x_max":386,"o":"m 51 710 l 358 710 l 360 621 l 51 621 l 51 710 m 197 1117 q 298 1092 260 1117 q 339 1011 336 1068 l 347 819 l 386 754 l 329 753 q 281 759 301 753 q 250 789 260 765 q 212 757 235 767 q 160 747 189 747 q 69 774 106 747 q 32 849 32 801 q 56 903 32 882 q 111 940 79 924 q 178 972 143 957 q 235 1008 213 988 q 224 1044 233 1029 q 188 1058 215 1058 l 40 965 l 40 1028 q 57 1065 40 1049 q 98 1093 74 1082 q 149 1110 122 1104 q 197 1117 176 1117 m 232 932 q 205 916 222 926 q 172 894 188 906 q 145 871 157 883 q 133 846 133 858 q 144 826 133 832 q 171 819 156 819 q 199 832 188 819 q 218 861 211 844 q 228 896 225 878 q 232 925 232 914 l 232 932 z "},"«":{"ha":685,"x_min":51,"x_max":622,"o":"m 554 239 q 523 249 538 239 q 497 267 508 258 l 360 383 q 331 414 342 399 q 319 453 319 429 q 344 514 319 486 l 474 661 q 499 685 485 674 q 532 696 514 696 l 608 696 l 608 594 q 599 558 608 576 q 577 522 590 539 q 548 490 564 506 q 519 463 532 475 q 553 435 535 450 q 586 404 571 421 q 612 369 601 388 q 622 332 622 351 l 622 239 l 554 239 m 286 207 q 255 217 269 207 q 229 239 240 228 l 92 371 q 62 406 72 389 q 51 451 51 424 q 76 521 51 489 l 206 689 q 231 715 217 703 q 264 728 246 728 l 340 728 l 340 613 q 331 571 340 592 q 309 531 322 550 q 280 494 296 511 q 251 461 264 476 q 285 431 267 447 q 318 395 303 414 q 344 356 333 376 q 354 313 354 336 l 354 207 l 286 207 z "},"¬":{"ha":653,"x_min":85,"x_max":588,"o":"m 85 488 l 85 613 l 588 613 l 588 350 l 438 350 l 438 488 l 85 488 z "},"®":{"ha":1044,"x_min":74,"x_max":956,"o":"m 506 -47 q 296 -8 379 -47 q 163 99 213 31 q 94 263 114 168 q 74 471 74 358 q 94 681 74 585 q 166 849 115 778 q 301 959 217 919 q 513 999 386 999 q 722 960 638 999 q 859 852 807 921 q 933 688 911 783 q 956 479 956 592 q 933 267 956 364 q 858 101 910 171 q 719 -8 806 31 q 506 -47 633 -47 m 506 38 q 654 67 593 38 q 756 153 715 96 l 704 153 l 542 149 l 590 182 l 476 372 l 451 363 l 451 222 l 518 143 l 336 140 l 292 142 l 333 222 l 336 711 l 288 801 l 479 801 q 567 794 525 801 q 642 767 610 786 q 694 713 675 747 q 714 626 714 679 q 676 494 714 544 q 567 410 638 444 l 692 235 l 761 160 q 835 479 835 271 q 819 638 835 560 q 767 776 804 715 q 669 874 731 836 q 513 911 607 911 q 359 872 421 911 q 260 771 297 833 q 206 631 222 708 q 190 475 190 553 q 202 321 190 399 q 248 180 214 243 q 344 77 282 117 q 506 38 406 38 m 450 446 q 503 476 478 458 q 550 516 529 493 q 583 567 571 539 q 596 628 596 594 q 567 692 596 671 q 499 714 539 714 l 451 714 q 451 580 451 647 q 450 446 451 513 z "},"¯":{"ha":432,"x_min":56,"x_max":357,"o":"m 56 799 l 56 949 l 357 947 l 357 797 l 56 799 z "},"°":{"ha":390,"x_min":43,"x_max":346,"o":"m 188 781 q 128 792 154 781 q 83 824 101 804 q 53 872 64 844 q 43 929 43 899 q 54 989 43 961 q 86 1038 65 1017 q 136 1071 107 1058 q 200 1083 165 1083 q 260 1071 233 1083 q 306 1038 288 1058 q 335 990 325 1017 q 346 932 346 963 q 302 824 346 867 q 188 781 258 781 m 140 926 q 156 874 140 894 q 199 854 172 854 q 241 877 225 854 q 257 939 257 900 q 240 986 257 967 q 199 1006 222 1006 q 156 981 171 1006 q 140 926 140 957 z "},"±":{"ha":718,"x_min":108,"x_max":614,"o":"m 111 589 l 108 736 l 264 735 l 258 881 l 451 886 l 454 735 l 601 736 l 601 592 l 457 592 l 463 438 l 268 440 l 267 592 l 111 589 m 108 392 l 614 394 l 614 238 l 108 235 l 108 392 z "},"²":{"ha":700,"x_min":67,"x_max":675,"o":"m 90 1074 q 202 1203 128 1157 q 392 1249 276 1249 q 483 1240 438 1249 q 565 1211 528 1231 q 624 1162 601 1192 q 646 1090 646 1132 q 628 1006 646 1050 q 579 915 610 961 q 510 824 549 869 q 429 735 471 778 q 347 656 388 693 q 275 589 307 618 l 533 589 l 675 683 l 629 469 l 75 474 l 67 589 q 178 701 111 639 q 309 829 246 763 q 417 964 372 896 q 463 1096 463 1032 q 453 1117 463 1108 q 431 1131 444 1125 q 403 1139 418 1136 q 374 1142 388 1142 l 82 983 l 90 1074 z "},"³":{"ha":713,"x_min":75,"x_max":661,"o":"m 335 456 q 260 463 304 456 q 174 483 215 469 q 104 518 133 497 q 75 568 75 539 l 75 651 l 343 563 q 388 567 365 563 q 429 581 411 572 q 458 605 447 590 q 469 638 469 619 q 442 684 469 665 q 375 715 414 703 q 295 735 336 728 q 226 749 254 743 q 181 768 196 756 q 165 806 165 781 q 176 832 165 825 q 207 847 188 839 q 302 887 256 867 q 384 933 349 907 q 441 992 419 958 q 463 1074 463 1026 q 385 1133 463 1133 l 86 975 l 86 1065 l 92 1086 q 209 1206 128 1164 q 401 1247 290 1247 q 507 1235 460 1247 q 588 1198 554 1222 q 641 1140 622 1174 q 660 1061 660 1106 q 642 986 660 1022 q 596 918 625 950 q 526 860 567 886 q 440 817 486 835 q 526 792 486 807 q 596 757 565 778 q 644 708 626 736 q 661 640 661 679 q 631 558 661 593 q 553 500 600 522 q 447 467 506 478 q 335 456 389 456 z "},"´":{"ha":336,"x_min":46,"x_max":301,"o":"m 153 968 l 301 949 l 144 779 l 46 793 l 153 968 z "},"µ":{"ha":733,"x_min":24,"x_max":700,"o":"m 174 -124 l 119 -124 q 88 -118 104 -124 q 56 -101 71 -112 q 33 -72 42 -89 q 25 -32 24 -56 l 92 858 l 267 858 l 236 367 q 240 320 235 346 q 254 272 244 294 q 278 235 264 250 q 308 219 292 219 q 367 272 336 219 q 404 424 399 324 l 428 856 l 608 856 l 597 243 l 692 250 l 700 49 l 619 49 q 522 81 560 49 q 469 190 485 114 q 444 129 457 158 q 415 78 432 100 q 374 44 397 57 q 317 32 350 32 q 250 47 281 32 q 194 97 219 61 l 174 -124 z "},"¶":{"ha":769,"x_min":32,"x_max":796,"o":"m 322 432 q 213 455 265 432 q 119 519 160 478 q 56 617 79 560 q 32 740 32 674 q 63 903 32 835 q 149 1015 93 971 q 287 1078 206 1058 q 468 1099 368 1099 l 611 1099 q 678 1067 658 1099 q 697 994 697 1036 l 697 967 l 696 78 l 796 -14 l 696 -15 l 532 -14 l 531 851 l 483 851 l 479 -12 l 326 -7 l 204 -7 l 325 100 l 322 432 z "},"·":{"ha":378,"x_min":69,"x_max":315,"o":"m 69 485 q 106 567 69 539 q 193 594 143 594 q 279 566 243 594 q 315 485 315 538 q 278 404 315 432 q 193 376 242 376 q 106 403 143 376 q 69 485 69 431 z "},"¸":{"ha":429,"x_min":89,"x_max":328,"o":"m 328 -172 q 309 -224 328 -199 q 263 -271 290 -250 q 203 -304 235 -292 q 149 -317 172 -317 l 89 -317 l 89 -246 q 97 -210 89 -224 q 117 -190 104 -197 q 145 -177 129 -182 q 178 -165 161 -172 q 167 -147 178 -156 q 146 -126 157 -137 q 125 -100 135 -115 q 115 -64 115 -85 q 135 -7 115 -32 q 188 18 154 18 l 235 13 q 231 -27 228 -10 q 232 -51 235 -44 q 259 -76 243 -62 q 290 -106 275 -90 q 317 -139 306 -122 q 328 -172 328 -156 z "},"¹":{"ha":631,"x_min":64,"x_max":574,"o":"m 64 1029 l 429 1258 l 429 1192 l 436 582 l 574 471 l 72 471 l 240 582 l 238 1038 l 64 1029 z "},"º":{"ha":411,"x_min":42,"x_max":368,"o":"m 42 924 q 50 992 42 957 q 78 1053 58 1026 q 129 1098 97 1081 q 210 1115 161 1115 q 288 1098 257 1115 q 336 1053 318 1081 q 361 994 354 1026 q 368 929 368 961 q 360 860 368 896 q 332 797 351 825 q 281 750 313 768 q 201 732 249 732 q 124 750 154 732 q 75 796 93 768 q 49 858 57 824 q 42 924 42 892 m 149 913 q 151 885 149 903 q 158 849 153 867 q 174 819 164 832 q 201 807 185 807 q 234 821 222 807 q 252 854 246 835 q 260 894 258 874 q 261 926 261 914 q 260 958 261 938 q 253 999 258 979 q 238 1035 249 1019 q 207 1050 226 1050 q 174 1033 186 1050 q 157 994 163 1017 q 150 948 151 971 q 149 913 149 925 m 51 710 l 367 710 l 368 621 l 51 621 l 51 710 z "},"»":{"ha":639,"x_min":51,"x_max":622,"o":"m 119 696 q 151 686 136 696 q 176 668 165 676 l 314 551 q 343 521 332 536 q 354 482 354 506 q 329 421 354 449 l 200 274 q 174 250 189 261 q 142 239 160 239 l 65 239 l 65 340 q 74 378 65 360 q 97 413 83 396 q 126 444 110 429 q 154 472 142 460 q 121 499 139 485 q 88 531 103 514 q 62 565 72 547 q 51 603 51 583 l 51 696 l 119 696 m 388 728 q 419 717 404 728 q 444 696 433 707 l 582 564 q 612 528 601 546 q 622 483 622 511 q 597 414 622 446 l 468 246 q 442 219 457 232 q 410 207 428 207 l 333 207 l 333 322 q 342 364 333 343 q 365 404 351 385 q 394 441 378 424 q 422 474 410 458 q 389 504 407 488 q 356 540 371 521 q 330 579 340 558 q 319 622 319 600 l 319 728 l 388 728 z "},"¼":{"ha":1340,"x_min":83,"x_max":1306,"o":"m 1079 231 l 1078 436 l 939 229 l 1079 231 m 83 915 l 417 1128 l 417 1065 l 422 501 l 547 399 l 90 399 l 244 501 l 242 924 l 83 915 m 776 1128 l 963 1128 l 675 -31 l 467 -31 l 776 1128 m 1082 63 l 1081 131 q 974 129 1028 131 q 868 128 921 128 q 803 151 822 128 q 783 211 783 174 l 1072 643 l 1219 679 l 1231 231 l 1306 229 l 1231 131 l 1232 63 l 1289 -36 l 1211 -35 l 1092 -35 l 994 -36 l 1082 63 z "},"½":{"ha":1419,"x_min":83,"x_max":1401,"o":"m 790 1128 l 976 1128 l 689 -31 l 481 -31 l 790 1128 m 871 508 q 967 624 906 586 q 1136 663 1029 663 q 1222 654 1179 663 q 1297 628 1264 646 q 1351 582 1331 610 q 1372 517 1372 554 q 1340 399 1372 463 q 1260 275 1308 336 q 1158 158 1213 214 q 1058 63 1104 103 l 1265 72 l 1401 168 l 1357 -51 l 842 -47 l 833 58 q 935 156 875 104 q 1053 262 996 207 q 1150 374 1110 317 q 1190 490 1190 432 q 1169 515 1190 506 q 1124 525 1147 525 q 1093 519 1104 525 l 864 404 l 871 508 m 83 915 l 417 1128 l 417 1065 l 422 501 l 547 399 l 90 399 l 244 501 l 242 924 l 83 915 z "},"¾":{"ha":1354,"x_min":57,"x_max":1306,"o":"m 1079 231 l 1078 436 l 939 229 l 1079 231 m 1082 63 l 1081 131 q 974 129 1028 131 q 868 128 921 128 q 803 151 822 128 q 783 211 783 174 l 1072 643 l 1219 679 l 1231 231 l 1306 229 l 1231 131 l 1232 63 l 1289 -36 l 1211 -35 l 1092 -35 l 994 -36 l 1082 63 m 283 382 q 218 389 257 382 q 144 409 179 396 q 83 443 108 422 q 57 492 57 464 l 57 572 l 292 486 q 331 490 311 486 q 366 503 350 494 q 392 526 382 513 q 403 558 403 540 q 378 604 403 586 q 319 634 354 622 q 249 653 285 646 q 189 667 213 661 q 149 686 163 674 q 136 722 136 699 q 145 747 136 740 q 172 763 154 754 q 256 801 215 782 q 327 846 296 821 q 377 904 358 871 q 396 983 396 938 q 328 1040 396 1040 l 65 888 l 65 975 l 72 994 q 174 1110 104 1069 q 342 1151 244 1151 q 507 1103 444 1151 q 569 971 569 1056 q 554 898 569 933 q 513 832 539 863 q 452 776 488 801 q 376 733 417 751 q 451 709 417 724 q 513 674 486 694 q 554 626 539 654 q 569 561 569 599 q 543 481 569 515 q 475 425 517 447 q 383 392 433 403 q 283 382 332 382 m 776 1128 l 963 1128 l 675 -31 l 467 -31 l 776 1128 z "},"¿":{"ha":629,"x_min":28,"x_max":611,"o":"m 472 725 q 453 623 472 672 q 406 525 435 574 q 345 428 378 476 q 284 333 313 381 q 237 235 256 285 q 218 135 218 186 q 223 86 218 113 q 240 38 228 60 q 270 1 251 15 q 317 -14 289 -14 l 611 210 l 611 131 q 588 16 611 72 q 526 -85 565 -40 q 435 -156 488 -129 q 321 -183 382 -183 q 201 -156 254 -183 q 108 -84 147 -129 q 49 19 69 -39 q 28 140 28 78 q 39 233 28 189 q 69 320 50 278 q 111 403 88 363 q 160 483 135 444 q 279 725 229 597 l 472 725 m 253 890 q 288 969 253 943 q 371 996 322 996 q 453 969 419 996 q 488 892 488 943 q 451 815 488 842 q 368 788 414 788 q 287 815 321 788 q 253 890 253 842 z "},"À":{"ha":814,"x_min":-19,"x_max":828,"o":"m 279 953 l 122 1093 l 672 1093 l 563 957 l 760 136 l 828 6 l 740 0 l 576 -3 l 428 0 l 558 135 l 519 286 l 271 258 l 236 119 l 325 -19 l 221 -18 l -19 -22 l 71 118 l 279 953 m 436 1138 l 279 1307 l 428 1326 l 535 1151 l 436 1138 m 490 424 l 407 799 l 307 404 l 490 424 z "},"Á":{"ha":814,"x_min":-19,"x_max":828,"o":"m 279 953 l 122 1093 l 672 1093 l 563 957 l 760 136 l 828 6 l 740 0 l 576 -3 l 428 0 l 558 135 l 519 286 l 271 258 l 236 119 l 325 -19 l 221 -18 l -19 -22 l 71 118 l 279 953 m 386 1326 l 535 1307 l 378 1138 l 279 1151 l 386 1326 m 490 424 l 407 799 l 307 404 l 490 424 z "},"Â":{"ha":814,"x_min":-19,"x_max":828,"o":"m 279 953 l 122 1093 l 672 1093 l 563 957 l 760 136 l 828 6 l 740 0 l 576 -3 l 428 0 l 558 135 l 519 286 l 271 258 l 236 119 l 325 -19 l 221 -18 l -19 -22 l 71 118 l 279 953 m 650 1121 l 522 1115 l 411 1192 l 304 1129 l 165 1133 l 315 1317 l 413 1356 l 515 1308 l 650 1121 m 490 424 l 407 799 l 307 404 l 490 424 z "},"Ã":{"ha":814,"x_min":-19,"x_max":828,"o":"m 279 953 l 122 1093 l 672 1093 l 563 957 l 760 136 l 828 6 l 740 0 l 576 -3 l 428 0 l 558 135 l 519 286 l 271 258 l 236 119 l 325 -19 l 221 -18 l -19 -22 l 71 118 l 279 953 m 347 1175 q 327 1168 336 1175 q 308 1152 318 1161 q 287 1136 299 1143 q 257 1129 275 1129 l 183 1129 l 183 1188 q 200 1233 183 1210 q 241 1277 217 1257 q 292 1310 265 1297 q 340 1322 319 1322 q 390 1311 368 1322 q 429 1286 413 1300 q 458 1261 446 1272 q 475 1250 469 1250 q 490 1258 482 1250 q 508 1275 497 1265 q 531 1292 518 1285 q 557 1300 543 1300 l 632 1300 l 632 1231 q 613 1190 632 1213 q 568 1149 594 1168 q 514 1117 542 1131 q 469 1104 486 1104 q 426 1115 444 1104 q 392 1140 407 1126 q 367 1164 378 1153 q 347 1175 357 1175 m 490 424 l 407 799 l 307 404 l 490 424 z "},"Ä":{"ha":814,"x_min":-19,"x_max":828,"o":"m 279 953 l 122 1093 l 672 1093 l 563 957 l 760 136 l 828 6 l 740 0 l 576 -3 l 428 0 l 558 135 l 519 286 l 271 258 l 236 119 l 325 -19 l 221 -18 l -19 -22 l 71 118 l 279 953 m 217 1242 q 242 1304 217 1283 q 308 1325 268 1325 q 373 1304 349 1325 q 397 1242 397 1283 q 372 1181 397 1201 q 308 1160 347 1160 q 244 1181 271 1160 q 217 1242 217 1201 m 418 1242 q 444 1304 418 1283 q 510 1325 469 1325 q 574 1304 550 1325 q 599 1242 599 1283 q 574 1181 599 1201 q 510 1160 549 1160 q 445 1181 472 1160 q 418 1242 418 1201 m 490 424 l 407 799 l 307 404 l 490 424 z "},"Å":{"ha":814,"x_min":-19,"x_max":828,"o":"m 279 953 l 122 1093 l 672 1093 l 563 957 l 760 136 l 828 6 l 740 0 l 576 -3 l 428 0 l 558 135 l 519 286 l 271 258 l 236 119 l 325 -19 l 221 -18 l -19 -22 l 71 118 l 279 953 m 247 1226 q 262 1276 247 1254 q 299 1313 276 1297 q 352 1338 322 1329 q 411 1346 382 1346 q 469 1338 440 1346 q 519 1316 497 1331 q 554 1281 540 1301 q 568 1233 568 1260 q 553 1185 568 1207 q 515 1147 539 1163 q 463 1123 492 1132 q 404 1114 433 1114 q 348 1122 376 1114 q 297 1144 319 1129 q 261 1179 275 1158 q 247 1226 247 1200 m 490 424 l 407 799 l 307 404 l 490 424 m 404 1264 q 360 1229 360 1264 q 373 1205 360 1213 q 407 1197 386 1197 q 454 1231 454 1197 q 440 1255 454 1246 q 404 1264 426 1264 z "},"Æ":{"ha":1128,"x_min":-19,"x_max":1118,"o":"m 490 424 l 407 799 l 307 404 l 490 424 m 279 953 l 122 1093 l 672 1093 l 667 1086 l 672 1086 q 826 1085 750 1086 q 979 1079 903 1085 q 1051 1065 1024 1076 q 1094 1031 1079 1053 q 1113 977 1108 1008 q 1118 906 1118 946 l 1118 801 l 969 917 l 739 922 l 735 571 l 897 597 l 1036 701 l 1036 607 l 1040 443 l 1038 347 l 897 449 l 733 422 l 731 257 l 756 154 l 951 169 l 1094 279 l 1094 196 q 1092 130 1094 164 q 1086 64 1089 96 q 1063 16 1082 25 q 1008 7 1043 7 q 840 -2 924 7 q 671 -11 756 -11 q 608 -3 636 -11 l 576 -3 l 428 0 l 540 117 l 540 206 l 519 286 l 271 258 l 236 119 l 325 -19 l 221 -18 l -19 -22 l 71 118 l 279 953 z "},"Ç":{"ha":685,"x_min":36,"x_max":629,"o":"m 463 -172 q 444 -224 463 -199 q 397 -271 425 -250 q 338 -304 369 -292 q 283 -317 307 -317 l 224 -317 l 224 -246 q 231 -210 224 -224 q 251 -190 239 -197 q 280 -177 264 -182 q 313 -165 296 -172 q 302 -147 313 -156 q 281 -126 292 -137 q 260 -100 269 -115 q 250 -64 250 -85 q 260 -22 250 -40 q 143 60 188 1 q 75 193 99 118 q 44 349 51 268 q 36 499 36 431 q 40 613 36 549 q 56 744 44 676 q 88 876 67 811 q 142 992 108 942 q 226 1074 176 1043 q 343 1106 275 1106 q 421 1090 383 1106 q 486 1044 458 1075 l 615 1165 l 607 797 l 607 701 l 364 950 q 315 922 336 950 q 279 849 294 893 q 254 750 264 804 q 238 644 244 696 q 230 551 232 593 q 228 488 228 508 q 230 431 228 467 q 238 355 232 396 q 253 272 243 314 q 278 197 263 231 q 315 142 293 164 q 367 121 338 121 l 629 360 l 629 -87 l 494 29 q 367 -33 443 -25 q 367 -51 368 -46 q 394 -76 378 -62 q 425 -106 410 -90 q 451 -139 440 -122 q 463 -172 463 -156 z "},"È":{"ha":619,"x_min":32,"x_max":610,"o":"m 586 196 q 583 130 586 164 q 578 64 581 96 q 554 16 574 25 q 500 7 535 7 q 331 -2 415 7 q 163 -11 247 -11 q 65 17 99 -11 q 32 111 32 44 l 32 965 q 67 1058 32 1031 q 164 1086 101 1086 q 318 1085 242 1086 q 471 1079 394 1085 q 543 1065 515 1076 q 585 1031 571 1053 q 605 977 600 1008 q 610 906 610 946 l 610 801 l 461 917 l 231 922 l 226 571 l 389 597 l 528 701 l 528 607 l 532 443 l 529 347 l 389 449 l 225 422 l 221 151 l 443 169 l 586 279 l 586 196 m 339 1138 l 182 1307 l 331 1326 l 438 1151 l 339 1138 z "},"É":{"ha":619,"x_min":32,"x_max":610,"o":"m 586 196 q 583 130 586 164 q 578 64 581 96 q 554 16 574 25 q 500 7 535 7 q 331 -2 415 7 q 163 -11 247 -11 q 65 17 99 -11 q 32 111 32 44 l 32 965 q 67 1058 32 1031 q 164 1086 101 1086 q 318 1085 242 1086 q 471 1079 394 1085 q 543 1065 515 1076 q 585 1031 571 1053 q 605 977 600 1008 q 610 906 610 946 l 610 801 l 461 917 l 231 922 l 226 571 l 389 597 l 528 701 l 528 607 l 532 443 l 529 347 l 389 449 l 225 422 l 221 151 l 443 169 l 586 279 l 586 196 m 289 1326 l 438 1307 l 281 1138 l 182 1151 l 289 1326 z "},"Ê":{"ha":619,"x_min":32,"x_max":610,"o":"m 586 196 q 583 130 586 164 q 578 64 581 96 q 554 16 574 25 q 500 7 535 7 q 331 -2 415 7 q 163 -11 247 -11 q 65 17 99 -11 q 32 111 32 44 l 32 965 q 67 1058 32 1031 q 164 1086 101 1086 q 318 1085 242 1086 q 471 1079 394 1085 q 543 1065 515 1076 q 585 1031 571 1053 q 605 977 600 1008 q 610 906 610 946 l 610 801 l 461 917 l 231 922 l 226 571 l 389 597 l 528 701 l 528 607 l 532 443 l 529 347 l 389 449 l 225 422 l 221 151 l 443 169 l 586 279 l 586 196 m 551 1121 l 424 1115 l 313 1192 l 206 1129 l 67 1133 l 217 1317 l 314 1356 l 417 1308 l 551 1121 z "},"Ë":{"ha":619,"x_min":32,"x_max":610,"o":"m 586 196 q 583 130 586 164 q 578 64 581 96 q 554 16 574 25 q 500 7 535 7 q 331 -2 415 7 q 163 -11 247 -11 q 65 17 99 -11 q 32 111 32 44 l 32 965 q 67 1058 32 1031 q 164 1086 101 1086 q 318 1085 242 1086 q 471 1079 394 1085 q 543 1065 515 1076 q 585 1031 571 1053 q 605 977 600 1008 q 610 906 610 946 l 610 801 l 461 917 l 231 922 l 226 571 l 389 597 l 528 701 l 528 607 l 532 443 l 529 347 l 389 449 l 225 422 l 221 151 l 443 169 l 586 279 l 586 196 m 119 1242 q 145 1304 119 1283 q 211 1325 171 1325 q 276 1304 251 1325 q 300 1242 300 1283 q 275 1181 300 1201 q 211 1160 250 1160 q 147 1181 174 1160 q 119 1242 119 1201 m 321 1242 q 347 1304 321 1283 q 413 1325 372 1325 q 477 1304 453 1325 q 501 1242 501 1283 q 476 1181 501 1201 q 413 1160 451 1160 q 348 1181 375 1160 q 321 1242 321 1201 z "},"Ì":{"ha":517,"x_min":-7,"x_max":525,"o":"m 168 944 l 18 1093 l 93 1096 l 146 1096 l 367 1093 l 511 1093 l 363 943 l 351 142 l 525 0 l 103 -1 l -7 -7 l 156 144 l 168 944 m 288 1138 l 131 1307 l 279 1326 l 386 1151 l 288 1138 z "},"Í":{"ha":517,"x_min":-7,"x_max":525,"o":"m 168 944 l 18 1093 l 93 1096 l 146 1096 l 367 1093 l 511 1093 l 363 943 l 351 142 l 525 0 l 103 -1 l -7 -7 l 156 144 l 168 944 m 238 1326 l 386 1307 l 229 1138 l 131 1151 l 238 1326 z "},"Î":{"ha":517,"x_min":-7,"x_max":525,"o":"m 168 944 l 18 1093 l 93 1096 l 146 1096 l 367 1093 l 511 1093 l 363 943 l 351 142 l 525 0 l 103 -1 l -7 -7 l 156 144 l 168 944 m 500 1121 l 372 1115 l 261 1192 l 154 1129 l 15 1133 l 165 1317 l 263 1356 l 365 1308 l 500 1121 z "},"Ï":{"ha":517,"x_min":-7,"x_max":525,"o":"m 168 944 l 18 1093 l 93 1096 l 146 1096 l 367 1093 l 511 1093 l 363 943 l 351 142 l 525 0 l 103 -1 l -7 -7 l 156 144 l 168 944 m 68 1242 q 94 1304 68 1283 q 160 1325 119 1325 q 224 1304 200 1325 q 249 1242 249 1283 q 224 1181 249 1201 q 160 1160 199 1160 q 95 1181 122 1160 q 68 1242 68 1201 m 269 1242 q 295 1304 269 1283 q 361 1325 321 1325 q 426 1304 401 1325 q 450 1242 450 1283 q 425 1181 450 1201 q 361 1160 400 1160 q 297 1181 324 1160 q 269 1242 269 1201 z "},"Ð":{"ha":728,"x_min":-36,"x_max":721,"o":"m -36 -14 l 60 132 l 69 565 l -36 565 l -36 719 l 74 719 l 78 932 l -35 1082 l 103 1083 l 313 1083 q 501 1047 424 1083 q 628 948 579 1011 q 699 798 676 885 q 721 610 721 711 q 712 475 721 546 q 682 335 703 404 q 628 202 661 265 q 549 91 596 139 q 441 15 503 43 q 301 -14 379 -14 l -36 -14 m 268 719 l 365 719 l 365 565 l 265 565 l 254 132 q 272 131 263 131 q 289 131 281 131 q 376 155 339 131 q 439 218 413 179 q 482 307 465 257 q 508 408 499 357 q 522 509 518 460 q 525 594 525 558 q 518 695 525 636 q 491 808 511 754 q 436 899 471 861 q 344 936 401 936 q 309 935 326 936 q 274 935 292 935 l 268 719 z "},"Ñ":{"ha":783,"x_min":-68,"x_max":824,"o":"m 90 958 l -68 1097 l 104 1099 l 183 1099 q 262 1078 226 1099 q 315 1017 297 1057 l 551 485 l 564 958 l 453 1097 l 824 1097 l 718 961 q 707 537 711 749 q 688 113 703 325 q 663 56 685 72 q 601 40 640 40 q 547 55 571 40 q 513 97 524 69 l 240 750 l 251 163 l 386 24 l 283 25 l 92 22 l -6 22 l 92 161 l 90 958 m 332 1175 q 312 1168 321 1175 q 293 1152 303 1161 q 272 1136 283 1143 q 242 1129 260 1129 l 168 1129 l 168 1188 q 185 1233 168 1210 q 226 1277 201 1257 q 277 1310 250 1297 q 325 1322 304 1322 q 375 1311 353 1322 q 414 1286 397 1300 q 442 1261 431 1272 q 460 1250 454 1250 q 474 1258 467 1250 q 492 1275 482 1265 q 515 1292 503 1285 q 542 1300 528 1300 l 617 1300 l 617 1231 q 598 1190 617 1213 q 553 1149 579 1168 q 499 1117 526 1131 q 454 1104 471 1104 q 410 1115 429 1104 q 377 1140 392 1126 q 352 1164 363 1153 q 332 1175 342 1175 z "},"Ò":{"ha":769,"x_min":24,"x_max":749,"o":"m 24 536 q 39 733 24 632 q 96 915 54 833 q 213 1050 138 997 q 406 1103 288 1103 q 541 1076 485 1103 q 635 1005 597 1050 q 696 901 674 960 q 730 777 718 842 q 745 646 742 713 q 749 519 749 579 q 743 397 749 460 q 722 276 738 335 q 681 165 707 217 q 616 76 656 114 q 521 15 576 38 q 390 -7 465 -7 q 257 16 314 -7 q 159 79 200 39 q 92 173 118 119 q 51 286 67 226 q 30 410 36 346 q 24 536 24 475 m 221 499 q 224 440 221 475 q 235 364 228 404 q 255 284 243 324 q 285 213 267 244 q 328 160 304 181 q 385 140 353 140 q 451 163 424 140 q 499 220 479 185 q 532 300 519 256 q 551 390 544 344 q 561 475 558 435 q 564 543 564 515 q 563 613 564 571 q 556 700 561 654 q 539 792 550 746 q 509 876 528 839 q 463 937 490 914 q 396 960 435 960 q 326 933 356 960 q 278 865 297 907 q 247 772 258 824 q 230 668 236 719 q 222 572 224 617 q 221 499 221 526 m 414 1138 l 257 1307 l 406 1326 l 513 1151 l 414 1138 z "},"Ó":{"ha":769,"x_min":24,"x_max":749,"o":"m 24 536 q 39 733 24 632 q 96 915 54 833 q 213 1050 138 997 q 406 1103 288 1103 q 541 1076 485 1103 q 635 1005 597 1050 q 696 901 674 960 q 730 777 718 842 q 745 646 742 713 q 749 519 749 579 q 743 397 749 460 q 722 276 738 335 q 681 165 707 217 q 616 76 656 114 q 521 15 576 38 q 390 -7 465 -7 q 257 16 314 -7 q 159 79 200 39 q 92 173 118 119 q 51 286 67 226 q 30 410 36 346 q 24 536 24 475 m 221 499 q 224 440 221 475 q 235 364 228 404 q 255 284 243 324 q 285 213 267 244 q 328 160 304 181 q 385 140 353 140 q 451 163 424 140 q 499 220 479 185 q 532 300 519 256 q 551 390 544 344 q 561 475 558 435 q 564 543 564 515 q 563 613 564 571 q 556 700 561 654 q 539 792 550 746 q 509 876 528 839 q 463 937 490 914 q 396 960 435 960 q 326 933 356 960 q 278 865 297 907 q 247 772 258 824 q 230 668 236 719 q 222 572 224 617 q 221 499 221 526 m 364 1326 l 513 1307 l 356 1138 l 257 1151 l 364 1326 z "},"Ô":{"ha":769,"x_min":24,"x_max":749,"o":"m 24 536 q 39 733 24 632 q 96 915 54 833 q 213 1050 138 997 q 406 1103 288 1103 q 541 1076 485 1103 q 635 1005 597 1050 q 696 901 674 960 q 730 777 718 842 q 745 646 742 713 q 749 519 749 579 q 743 397 749 460 q 722 276 738 335 q 681 165 707 217 q 616 76 656 114 q 521 15 576 38 q 390 -7 465 -7 q 257 16 314 -7 q 159 79 200 39 q 92 173 118 119 q 51 286 67 226 q 30 410 36 346 q 24 536 24 475 m 221 499 q 224 440 221 475 q 235 364 228 404 q 255 284 243 324 q 285 213 267 244 q 328 160 304 181 q 385 140 353 140 q 451 163 424 140 q 499 220 479 185 q 532 300 519 256 q 551 390 544 344 q 561 475 558 435 q 564 543 564 515 q 563 613 564 571 q 556 700 561 654 q 539 792 550 746 q 509 876 528 839 q 463 937 490 914 q 396 960 435 960 q 326 933 356 960 q 278 865 297 907 q 247 772 258 824 q 230 668 236 719 q 222 572 224 617 q 221 499 221 526 m 628 1121 l 500 1115 l 389 1192 l 282 1129 l 143 1133 l 293 1317 l 390 1356 l 493 1308 l 628 1121 z "},"Õ":{"ha":769,"x_min":24,"x_max":749,"o":"m 24 536 q 39 733 24 632 q 96 915 54 833 q 213 1050 138 997 q 406 1103 288 1103 q 541 1076 485 1103 q 635 1005 597 1050 q 696 901 674 960 q 730 777 718 842 q 745 646 742 713 q 749 519 749 579 q 743 397 749 460 q 722 276 738 335 q 681 165 707 217 q 616 76 656 114 q 521 15 576 38 q 390 -7 465 -7 q 257 16 314 -7 q 159 79 200 39 q 92 173 118 119 q 51 286 67 226 q 30 410 36 346 q 24 536 24 475 m 221 499 q 224 440 221 475 q 235 364 228 404 q 255 284 243 324 q 285 213 267 244 q 328 160 304 181 q 385 140 353 140 q 451 163 424 140 q 499 220 479 185 q 532 300 519 256 q 551 390 544 344 q 561 475 558 435 q 564 543 564 515 q 563 613 564 571 q 556 700 561 654 q 539 792 550 746 q 509 876 528 839 q 463 937 490 914 q 396 960 435 960 q 326 933 356 960 q 278 865 297 907 q 247 772 258 824 q 230 668 236 719 q 222 572 224 617 q 221 499 221 526 m 325 1175 q 305 1168 314 1175 q 286 1152 296 1161 q 265 1136 276 1143 q 235 1129 253 1129 l 161 1129 l 161 1188 q 178 1233 161 1210 q 219 1277 194 1257 q 270 1310 243 1297 q 318 1322 297 1322 q 368 1311 346 1322 q 407 1286 390 1300 q 435 1261 424 1272 q 453 1250 447 1250 q 467 1258 460 1250 q 485 1275 475 1265 q 508 1292 496 1285 q 535 1300 521 1300 l 610 1300 l 610 1231 q 591 1190 610 1213 q 546 1149 572 1168 q 492 1117 519 1131 q 447 1104 464 1104 q 403 1115 422 1104 q 370 1140 385 1126 q 345 1164 356 1153 q 325 1175 335 1175 z "},"Ö":{"ha":769,"x_min":24,"x_max":749,"o":"m 24 536 q 39 733 24 632 q 96 915 54 833 q 213 1050 138 997 q 406 1103 288 1103 q 541 1076 485 1103 q 635 1005 597 1050 q 696 901 674 960 q 730 777 718 842 q 745 646 742 713 q 749 519 749 579 q 743 397 749 460 q 722 276 738 335 q 681 165 707 217 q 616 76 656 114 q 521 15 576 38 q 390 -7 465 -7 q 257 16 314 -7 q 159 79 200 39 q 92 173 118 119 q 51 286 67 226 q 30 410 36 346 q 24 536 24 475 m 221 499 q 224 440 221 475 q 235 364 228 404 q 255 284 243 324 q 285 213 267 244 q 328 160 304 181 q 385 140 353 140 q 451 163 424 140 q 499 220 479 185 q 532 300 519 256 q 551 390 544 344 q 561 475 558 435 q 564 543 564 515 q 563 613 564 571 q 556 700 561 654 q 539 792 550 746 q 509 876 528 839 q 463 937 490 914 q 396 960 435 960 q 326 933 356 960 q 278 865 297 907 q 247 772 258 824 q 230 668 236 719 q 222 572 224 617 q 221 499 221 526 m 194 1242 q 220 1304 194 1283 q 286 1325 246 1325 q 351 1304 326 1325 q 375 1242 375 1283 q 350 1181 375 1201 q 286 1160 325 1160 q 222 1181 249 1160 q 194 1242 194 1201 m 396 1242 q 422 1304 396 1283 q 488 1325 447 1325 q 552 1304 528 1325 q 576 1242 576 1283 q 551 1181 576 1201 q 488 1160 526 1160 q 423 1181 450 1160 q 396 1242 396 1201 z "},"×":{"ha":671,"x_min":92,"x_max":572,"o":"m 449 717 l 572 614 l 463 503 l 572 400 l 440 294 l 335 396 l 229 299 l 92 396 l 208 504 l 99 614 l 226 729 l 336 624 l 449 717 z "},"Ø":{"ha":769,"x_min":24,"x_max":749,"o":"m 24 536 q 39 733 24 632 q 96 915 54 833 q 213 1050 138 997 q 406 1103 288 1103 q 493 1093 456 1103 q 525 1115 507 1108 q 574 1121 543 1121 l 649 1121 l 649 1050 q 638 1003 649 1040 q 697 899 675 958 q 731 776 719 840 q 745 645 742 711 q 749 519 749 579 q 743 397 749 460 q 722 276 738 335 q 681 165 707 217 q 616 76 656 114 q 521 15 576 38 q 390 -7 465 -7 q 288 6 333 -7 q 250 -29 274 -19 q 194 -39 226 -39 l 122 -39 l 122 31 q 142 99 122 38 q 84 191 107 139 q 47 300 61 243 q 28 417 33 357 q 24 536 24 478 m 221 499 q 223 445 221 476 q 232 378 225 414 q 284 535 257 454 q 338 692 311 615 q 388 837 364 769 q 429 954 411 904 q 413 958 422 957 q 396 960 404 960 q 326 933 356 960 q 278 865 297 907 q 247 772 258 824 q 230 668 236 719 q 222 572 224 617 q 221 499 221 526 m 342 151 q 385 140 361 140 q 451 163 424 140 q 499 220 479 185 q 532 300 519 256 q 551 390 544 344 q 561 475 558 435 q 564 543 564 515 q 562 627 564 575 q 550 735 560 679 q 497 581 525 661 q 442 424 469 501 q 388 277 414 347 q 342 151 363 207 z "},"Ù":{"ha":740,"x_min":-8,"x_max":747,"o":"m -8 1071 l 81 1072 l 239 1072 l 339 1071 l 260 938 q 258 853 258 896 q 258 769 258 811 q 260 524 258 646 q 261 278 261 401 q 265 214 261 247 q 283 153 269 181 q 319 109 296 126 q 382 92 343 92 q 446 114 422 92 q 483 169 469 136 q 500 238 496 201 q 504 306 504 275 l 519 933 l 404 1071 l 479 1072 l 747 1072 l 679 936 l 657 306 q 639 163 654 229 q 588 48 624 97 q 495 -29 553 -1 q 351 -57 438 -57 q 209 -28 264 -57 q 124 51 154 1 q 82 167 93 100 q 71 308 71 233 q 68 569 71 439 q 65 831 65 700 l 65 932 l -8 1071 m 400 1138 l 243 1307 l 392 1326 l 499 1151 l 400 1138 z "},"Ú":{"ha":740,"x_min":-8,"x_max":747,"o":"m -8 1071 l 81 1072 l 239 1072 l 339 1071 l 260 938 q 258 853 258 896 q 258 769 258 811 q 260 524 258 646 q 261 278 261 401 q 265 214 261 247 q 283 153 269 181 q 319 109 296 126 q 382 92 343 92 q 446 114 422 92 q 483 169 469 136 q 500 238 496 201 q 504 306 504 275 l 519 933 l 404 1071 l 479 1072 l 747 1072 l 679 936 l 657 306 q 639 163 654 229 q 588 48 624 97 q 495 -29 553 -1 q 351 -57 438 -57 q 209 -28 264 -57 q 124 51 154 1 q 82 167 93 100 q 71 308 71 233 q 68 569 71 439 q 65 831 65 700 l 65 932 l -8 1071 m 350 1326 l 499 1307 l 342 1138 l 243 1151 l 350 1326 z "},"Û":{"ha":740,"x_min":-8,"x_max":747,"o":"m -8 1071 l 81 1072 l 239 1072 l 339 1071 l 260 938 q 258 853 258 896 q 258 769 258 811 q 260 524 258 646 q 261 278 261 401 q 265 214 261 247 q 283 153 269 181 q 319 109 296 126 q 382 92 343 92 q 446 114 422 92 q 483 169 469 136 q 500 238 496 201 q 504 306 504 275 l 519 933 l 404 1071 l 479 1072 l 747 1072 l 679 936 l 657 306 q 639 163 654 229 q 588 48 624 97 q 495 -29 553 -1 q 351 -57 438 -57 q 209 -28 264 -57 q 124 51 154 1 q 82 167 93 100 q 71 308 71 233 q 68 569 71 439 q 65 831 65 700 l 65 932 l -8 1071 m 613 1121 l 485 1115 l 374 1192 l 267 1129 l 128 1133 l 278 1317 l 375 1356 l 478 1308 l 613 1121 z "},"Ü":{"ha":740,"x_min":-8,"x_max":747,"o":"m -8 1071 l 81 1072 l 239 1072 l 339 1071 l 260 938 q 258 853 258 896 q 258 769 258 811 q 260 524 258 646 q 261 278 261 401 q 265 214 261 247 q 283 153 269 181 q 319 109 296 126 q 382 92 343 92 q 446 114 422 92 q 483 169 469 136 q 500 238 496 201 q 504 306 504 275 l 519 933 l 404 1071 l 479 1072 l 747 1072 l 679 936 l 657 306 q 639 163 654 229 q 588 48 624 97 q 495 -29 553 -1 q 351 -57 438 -57 q 209 -28 264 -57 q 124 51 154 1 q 82 167 93 100 q 71 308 71 233 q 68 569 71 439 q 65 831 65 700 l 65 932 l -8 1071 m 179 1242 q 205 1304 179 1283 q 271 1325 231 1325 q 335 1304 311 1325 q 360 1242 360 1283 q 335 1181 360 1201 q 271 1160 310 1160 q 206 1181 233 1160 q 179 1242 179 1201 m 381 1242 q 406 1304 381 1283 q 472 1325 432 1325 q 537 1304 513 1325 q 561 1242 561 1283 q 536 1181 561 1201 q 472 1160 511 1160 q 408 1181 435 1160 q 381 1242 381 1201 z "},"Ý":{"ha":704,"x_min":-11,"x_max":739,"o":"m 471 958 l 368 1099 l 739 1099 l 636 963 q 613 894 631 943 q 574 782 596 844 q 530 651 553 719 q 488 523 507 582 q 455 422 468 464 q 442 372 442 381 q 440 244 439 308 q 439 115 440 179 l 546 -22 l 431 -22 l 240 -25 l 125 -24 l 246 114 q 249 246 247 181 q 250 378 250 311 q 238 419 250 381 q 208 517 226 458 q 167 645 189 576 q 124 776 144 714 q 89 886 104 839 q 69 949 74 933 l -11 1088 l 72 1086 l 263 1086 l 353 1088 l 271 951 l 361 603 l 471 958 m 332 1326 l 481 1307 l 324 1138 l 225 1151 l 332 1326 z "},"Þ":{"ha":722,"x_min":19,"x_max":694,"o":"m 90 968 l 19 1107 l 397 1107 l 285 975 l 285 929 q 439 906 365 926 q 569 845 513 886 q 660 740 626 804 q 694 586 694 676 q 661 428 694 501 q 571 301 628 356 q 440 215 514 247 q 283 178 365 182 l 283 125 l 442 0 l 19 0 l 89 142 l 90 968 m 285 342 q 367 371 331 349 q 431 426 404 393 q 472 499 457 458 q 486 586 486 540 q 470 665 486 632 q 427 717 454 697 q 363 747 400 738 q 285 757 326 757 l 285 342 z "},"ß":{"ha":772,"x_min":26,"x_max":744,"o":"m 71 801 q 96 922 72 868 q 160 1013 119 975 q 256 1070 200 1050 q 378 1090 313 1090 q 494 1072 438 1090 q 593 1019 550 1054 q 663 933 636 983 q 689 818 689 883 q 667 713 689 760 q 620 631 646 667 q 573 566 594 594 q 551 514 551 538 q 566 488 551 499 q 601 464 581 476 q 648 435 622 451 q 694 394 674 419 q 730 331 715 368 q 744 239 744 293 q 725 130 744 176 q 671 53 706 83 q 587 9 636 24 q 478 -6 538 -6 q 410 -1 443 -6 q 351 15 378 3 q 305 51 324 28 q 281 114 286 75 l 289 253 l 476 128 q 536 160 521 128 q 551 229 551 192 q 536 275 551 256 q 499 313 521 294 q 450 349 476 331 q 401 389 424 367 q 364 441 379 411 q 349 511 349 471 q 370 603 349 561 q 417 685 392 646 q 463 761 442 724 q 485 839 485 799 q 451 908 485 883 q 378 932 418 932 q 325 921 347 932 q 288 890 303 910 q 267 845 274 871 q 260 792 260 819 l 250 125 q 244 59 251 83 q 219 22 236 35 q 176 4 203 8 q 111 0 149 0 l 26 0 l 26 92 q 33 131 26 111 q 61 158 39 151 l 71 801 z "},"à":{"ha":613,"x_min":17,"x_max":619,"o":"m 297 738 q 470 688 406 738 q 539 525 535 638 l 553 136 l 619 4 l 522 3 q 441 15 478 3 q 389 75 404 26 q 324 10 364 31 q 235 -10 285 -10 q 149 4 189 -10 q 79 45 108 18 q 33 110 50 72 q 17 196 17 149 q 56 306 17 263 q 151 382 96 349 q 265 447 206 415 q 361 519 324 478 q 344 590 360 560 q 282 619 329 619 l 32 432 l 32 558 q 60 633 32 600 q 130 690 89 667 q 217 725 171 713 q 297 738 263 738 m 357 365 q 310 331 339 351 q 255 288 282 311 q 208 239 228 264 q 189 189 189 214 q 209 149 189 163 q 253 136 229 136 q 301 161 282 136 q 333 221 321 186 q 351 292 346 256 q 357 350 357 328 l 357 365 m 336 779 l 179 949 l 328 968 l 435 793 l 336 779 z "},"á":{"ha":613,"x_min":17,"x_max":619,"o":"m 297 738 q 470 688 406 738 q 539 525 535 638 l 553 136 l 619 4 l 522 3 q 441 15 478 3 q 389 75 404 26 q 324 10 364 31 q 235 -10 285 -10 q 149 4 189 -10 q 79 45 108 18 q 33 110 50 72 q 17 196 17 149 q 56 306 17 263 q 151 382 96 349 q 265 447 206 415 q 361 519 324 478 q 344 590 360 560 q 282 619 329 619 l 32 432 l 32 558 q 60 633 32 600 q 130 690 89 667 q 217 725 171 713 q 297 738 263 738 m 357 365 q 310 331 339 351 q 255 288 282 311 q 208 239 228 264 q 189 189 189 214 q 209 149 189 163 q 253 136 229 136 q 301 161 282 136 q 333 221 321 186 q 351 292 346 256 q 357 350 357 328 l 357 365 m 286 968 l 435 949 l 278 779 l 179 793 l 286 968 z "},"â":{"ha":613,"x_min":17,"x_max":619,"o":"m 297 738 q 470 688 406 738 q 539 525 535 638 l 553 136 l 619 4 l 522 3 q 441 15 478 3 q 389 75 404 26 q 324 10 364 31 q 235 -10 285 -10 q 149 4 189 -10 q 79 45 108 18 q 33 110 50 72 q 17 196 17 149 q 56 306 17 263 q 151 382 96 349 q 265 447 206 415 q 361 519 324 478 q 344 590 360 560 q 282 619 329 619 l 32 432 l 32 558 q 60 633 32 600 q 130 690 89 667 q 217 725 171 713 q 297 738 263 738 m 357 365 q 310 331 339 351 q 255 288 282 311 q 208 239 228 264 q 189 189 189 214 q 209 149 189 163 q 253 136 229 136 q 301 161 282 136 q 333 221 321 186 q 351 292 346 256 q 357 350 357 328 l 357 365 m 549 763 l 421 757 l 310 833 l 203 771 l 64 775 l 214 958 l 311 997 l 414 950 l 549 763 z "},"ã":{"ha":613,"x_min":17,"x_max":619,"o":"m 297 738 q 470 688 406 738 q 539 525 535 638 l 553 136 l 619 4 l 522 3 q 441 15 478 3 q 389 75 404 26 q 324 10 364 31 q 235 -10 285 -10 q 149 4 189 -10 q 79 45 108 18 q 33 110 50 72 q 17 196 17 149 q 56 306 17 263 q 151 382 96 349 q 265 447 206 415 q 361 519 324 478 q 344 590 360 560 q 282 619 329 619 l 32 432 l 32 558 q 60 633 32 600 q 130 690 89 667 q 217 725 171 713 q 297 738 263 738 m 357 365 q 310 331 339 351 q 255 288 282 311 q 208 239 228 264 q 189 189 189 214 q 209 149 189 163 q 253 136 229 136 q 301 161 282 136 q 333 221 321 186 q 351 292 346 256 q 357 350 357 328 l 357 365 m 246 817 q 226 810 235 817 q 207 794 217 803 q 185 778 197 785 q 156 771 174 771 l 82 771 l 82 829 q 99 875 82 851 q 140 919 115 899 q 191 951 164 939 q 239 964 218 964 q 289 953 267 964 q 328 928 311 942 q 356 903 344 914 q 374 892 368 892 q 388 899 381 892 q 406 917 396 907 q 429 934 417 926 q 456 942 442 942 l 531 942 l 531 872 q 512 832 531 854 q 467 791 493 810 q 413 759 440 772 q 368 746 385 746 q 324 757 343 746 q 291 781 306 768 q 266 806 276 794 q 246 817 256 817 z "},"ä":{"ha":613,"x_min":17,"x_max":619,"o":"m 297 738 q 470 688 406 738 q 539 525 535 638 l 553 136 l 619 4 l 522 3 q 441 15 478 3 q 389 75 404 26 q 324 10 364 31 q 235 -10 285 -10 q 149 4 189 -10 q 79 45 108 18 q 33 110 50 72 q 17 196 17 149 q 56 306 17 263 q 151 382 96 349 q 265 447 206 415 q 361 519 324 478 q 344 590 360 560 q 282 619 329 619 l 32 432 l 32 558 q 60 633 32 600 q 130 690 89 667 q 217 725 171 713 q 297 738 263 738 m 357 365 q 310 331 339 351 q 255 288 282 311 q 208 239 228 264 q 189 189 189 214 q 209 149 189 163 q 253 136 229 136 q 301 161 282 136 q 333 221 321 186 q 351 292 346 256 q 357 350 357 328 l 357 365 m 115 883 q 141 946 115 925 q 207 967 167 967 q 272 946 247 967 q 296 883 296 925 q 271 822 296 843 q 207 801 246 801 q 142 822 169 801 q 115 883 115 843 m 317 883 q 342 946 317 925 q 408 967 368 967 q 473 946 449 967 q 497 883 497 925 q 472 822 497 843 q 408 801 447 801 q 344 822 371 801 q 317 883 317 843 z "},"å":{"ha":613,"x_min":17,"x_max":619,"o":"m 297 738 q 470 688 406 738 q 539 525 535 638 l 553 136 l 619 4 l 522 3 q 441 15 478 3 q 389 75 404 26 q 324 10 364 31 q 235 -10 285 -10 q 149 4 189 -10 q 79 45 108 18 q 33 110 50 72 q 17 196 17 149 q 56 306 17 263 q 151 382 96 349 q 265 447 206 415 q 361 519 324 478 q 344 590 360 560 q 282 619 329 619 l 32 432 l 32 558 q 60 633 32 600 q 130 690 89 667 q 217 725 171 713 q 297 738 263 738 m 357 365 q 310 331 339 351 q 255 288 282 311 q 208 239 228 264 q 189 189 189 214 q 209 149 189 163 q 253 136 229 136 q 301 161 282 136 q 333 221 321 186 q 351 292 346 256 q 357 350 357 328 l 357 365 m 146 868 q 160 917 146 896 q 198 955 175 939 q 251 979 221 971 q 310 988 281 988 q 367 980 339 988 q 417 958 396 972 q 453 922 439 943 q 467 875 467 901 q 452 826 467 849 q 414 789 438 804 q 361 765 390 774 q 303 756 332 756 q 247 763 275 756 q 196 785 218 771 q 160 821 174 800 q 146 868 146 842 m 303 906 q 258 871 258 906 q 272 847 258 854 q 306 839 285 839 q 353 872 353 839 q 339 897 353 888 q 303 906 325 906 z "},"æ":{"ha":913,"x_min":17,"x_max":899,"o":"m 297 738 q 401 724 356 738 q 478 681 446 710 q 554 731 510 713 q 661 749 599 749 q 747 735 707 749 q 818 695 788 721 q 867 632 849 669 q 885 546 885 594 q 851 438 885 482 q 769 361 818 394 q 665 301 719 328 q 567 244 610 274 q 578 204 571 225 q 599 166 586 183 q 628 138 611 149 q 669 126 646 126 l 899 319 l 899 244 q 882 148 899 193 q 835 68 865 103 q 761 13 804 33 q 665 -7 718 -7 q 581 4 621 -7 l 522 3 q 441 15 478 3 q 389 75 404 26 q 324 10 364 31 q 235 -10 285 -10 q 149 4 189 -10 q 79 45 108 18 q 33 110 50 72 q 17 196 17 149 q 56 306 17 263 q 151 382 96 349 q 265 447 206 415 q 361 519 324 478 q 344 590 360 560 q 282 619 329 619 l 32 432 l 32 558 q 60 633 32 600 q 130 690 89 667 q 217 725 171 713 q 297 738 263 738 m 557 382 q 603 408 574 392 q 660 445 632 425 q 710 488 689 465 q 731 533 731 511 q 713 591 731 565 q 660 617 694 617 q 605 589 625 617 q 574 524 585 561 q 560 447 564 486 q 557 382 557 407 m 357 365 q 310 331 339 351 q 255 288 282 311 q 208 239 228 264 q 189 189 189 214 q 209 149 189 163 q 253 136 229 136 q 301 161 282 136 q 333 221 321 186 q 351 292 346 256 q 357 350 357 328 l 357 365 z "},"ç":{"ha":525,"x_min":14,"x_max":508,"o":"m 476 824 l 476 457 l 296 617 q 259 601 275 617 q 231 560 243 585 q 212 503 219 535 q 200 442 204 472 q 194 386 196 413 q 192 346 192 360 q 195 281 192 319 q 210 209 199 243 q 244 151 222 175 q 304 126 267 126 l 508 331 l 507 254 q 497 151 507 199 q 462 67 486 103 q 398 13 438 32 q 300 -7 358 -7 l 286 -7 q 287 -34 285 -22 q 286 -51 289 -46 q 313 -76 297 -62 q 344 -106 329 -90 q 371 -139 360 -122 q 382 -172 382 -156 q 363 -224 382 -199 q 317 -271 344 -250 q 258 -304 289 -292 q 203 -317 226 -317 l 143 -317 l 143 -246 q 151 -210 143 -224 q 171 -190 158 -197 q 199 -177 183 -182 q 232 -165 215 -172 q 222 -147 232 -156 q 200 -126 211 -137 q 179 -100 189 -115 q 169 -64 169 -85 q 178 -24 169 -43 q 204 7 188 -4 q 114 59 150 24 q 56 142 78 94 q 24 247 33 190 q 14 363 14 303 q 26 498 14 429 q 67 622 38 567 q 150 713 97 678 q 283 749 203 749 q 324 742 310 749 q 364 715 339 736 l 476 824 z "},"è":{"ha":549,"x_min":15,"x_max":535,"o":"m 297 749 q 383 735 343 749 q 454 695 424 721 q 503 632 485 669 q 521 546 521 594 q 488 438 521 482 q 405 361 454 394 q 301 301 356 328 q 203 244 246 274 q 215 204 207 225 q 235 166 222 183 q 265 138 247 149 q 306 126 282 126 l 535 319 l 535 244 q 518 148 535 193 q 471 68 501 103 q 397 13 440 33 q 301 -7 354 -7 q 165 24 219 -7 q 76 107 110 56 q 29 225 43 158 q 15 363 15 292 q 28 503 15 433 q 72 626 40 572 q 158 715 104 681 q 297 749 213 749 m 193 382 q 239 408 210 392 q 297 445 268 425 q 346 488 325 465 q 367 533 367 511 q 349 591 367 565 q 296 617 331 617 q 241 589 261 617 q 210 524 221 561 q 197 447 200 486 q 193 382 193 407 m 304 779 l 147 949 l 296 968 l 403 793 l 304 779 z "},"é":{"ha":549,"x_min":15,"x_max":535,"o":"m 297 749 q 383 735 343 749 q 454 695 424 721 q 503 632 485 669 q 521 546 521 594 q 488 438 521 482 q 405 361 454 394 q 301 301 356 328 q 203 244 246 274 q 215 204 207 225 q 235 166 222 183 q 265 138 247 149 q 306 126 282 126 l 535 319 l 535 244 q 518 148 535 193 q 471 68 501 103 q 397 13 440 33 q 301 -7 354 -7 q 165 24 219 -7 q 76 107 110 56 q 29 225 43 158 q 15 363 15 292 q 28 503 15 433 q 72 626 40 572 q 158 715 104 681 q 297 749 213 749 m 193 382 q 239 408 210 392 q 297 445 268 425 q 346 488 325 465 q 367 533 367 511 q 349 591 367 565 q 296 617 331 617 q 241 589 261 617 q 210 524 221 561 q 197 447 200 486 q 193 382 193 407 m 254 968 l 403 949 l 246 779 l 147 793 l 254 968 z "},"ê":{"ha":549,"x_min":15,"x_max":535,"o":"m 297 749 q 383 735 343 749 q 454 695 424 721 q 503 632 485 669 q 521 546 521 594 q 488 438 521 482 q 405 361 454 394 q 301 301 356 328 q 203 244 246 274 q 215 204 207 225 q 235 166 222 183 q 265 138 247 149 q 306 126 282 126 l 535 319 l 535 244 q 518 148 535 193 q 471 68 501 103 q 397 13 440 33 q 301 -7 354 -7 q 165 24 219 -7 q 76 107 110 56 q 29 225 43 158 q 15 363 15 292 q 28 503 15 433 q 72 626 40 572 q 158 715 104 681 q 297 749 213 749 m 193 382 q 239 408 210 392 q 297 445 268 425 q 346 488 325 465 q 367 533 367 511 q 349 591 367 565 q 296 617 331 617 q 241 589 261 617 q 210 524 221 561 q 197 447 200 486 q 193 382 193 407 m 517 763 l 389 757 l 278 833 l 171 771 l 32 775 l 182 958 l 279 997 l 382 950 l 517 763 z "},"ë":{"ha":549,"x_min":15,"x_max":535,"o":"m 297 749 q 383 735 343 749 q 454 695 424 721 q 503 632 485 669 q 521 546 521 594 q 488 438 521 482 q 405 361 454 394 q 301 301 356 328 q 203 244 246 274 q 215 204 207 225 q 235 166 222 183 q 265 138 247 149 q 306 126 282 126 l 535 319 l 535 244 q 518 148 535 193 q 471 68 501 103 q 397 13 440 33 q 301 -7 354 -7 q 165 24 219 -7 q 76 107 110 56 q 29 225 43 158 q 15 363 15 292 q 28 503 15 433 q 72 626 40 572 q 158 715 104 681 q 297 749 213 749 m 193 382 q 239 408 210 392 q 297 445 268 425 q 346 488 325 465 q 367 533 367 511 q 349 591 367 565 q 296 617 331 617 q 241 589 261 617 q 210 524 221 561 q 197 447 200 486 q 193 382 193 407 m 83 883 q 109 946 83 925 q 175 967 135 967 q 240 946 215 967 q 264 883 264 925 q 239 822 264 843 q 175 801 214 801 q 110 822 138 801 q 83 883 83 843 m 285 883 q 310 946 285 925 q 376 967 336 967 q 441 946 417 967 q 465 883 465 925 q 440 822 465 843 q 376 801 415 801 q 312 822 339 801 q 285 883 285 843 z "},"ì":{"ha":342,"x_min":-11,"x_max":386,"o":"m 131 740 q 176 740 151 740 q 222 735 200 740 q 259 715 244 729 q 274 671 274 700 q 271 444 274 557 q 268 218 268 332 l 268 135 l 386 0 l 117 -4 l -11 -4 l 101 132 l 100 603 l 6 740 l 131 740 m 200 779 l 43 949 l 192 968 l 299 793 l 200 779 z "},"í":{"ha":342,"x_min":-11,"x_max":386,"o":"m 131 740 q 176 740 151 740 q 222 735 200 740 q 259 715 244 729 q 274 671 274 700 q 271 444 274 557 q 268 218 268 332 l 268 135 l 386 0 l 117 -4 l -11 -4 l 101 132 l 100 603 l 6 740 l 131 740 m 150 968 l 299 949 l 142 779 l 43 793 l 150 968 z "},"î":{"ha":342,"x_min":-72,"x_max":413,"o":"m 131 740 q 176 740 151 740 q 222 735 200 740 q 259 715 244 729 q 274 671 274 700 q 271 444 274 557 q 268 218 268 332 l 268 135 l 386 0 l 117 -4 l -11 -4 l 101 132 l 100 603 l 6 740 l 131 740 m 413 763 l 285 757 l 174 833 l 67 771 l -72 775 l 78 958 l 175 997 l 278 950 l 413 763 z "},"ï":{"ha":342,"x_min":-21,"x_max":386,"o":"m 131 740 q 176 740 151 740 q 222 735 200 740 q 259 715 244 729 q 274 671 274 700 q 271 444 274 557 q 268 218 268 332 l 268 135 l 386 0 l 117 -4 l -11 -4 l 101 132 l 100 603 l 6 740 l 131 740 m -21 883 q 5 946 -21 925 q 71 967 31 967 q 135 946 111 967 q 160 883 160 925 q 135 822 160 843 q 71 801 110 801 q 6 822 33 801 q -21 883 -21 843 m 181 883 q 206 946 181 925 q 272 967 232 967 q 337 946 313 967 q 361 883 361 925 q 336 822 361 843 q 272 801 311 801 q 208 822 235 801 q 181 883 181 843 z "},"ð":{"ha":679,"x_min":58,"x_max":647,"o":"m 404 729 q 371 792 389 760 q 329 849 353 825 l 242 765 l 131 864 l 179 921 q 144 928 163 924 q 109 940 125 932 q 83 962 93 949 q 74 997 74 975 l 74 1075 l 153 1075 q 328 1040 243 1075 l 397 1099 l 519 1010 l 468 944 q 547 832 514 897 q 603 695 581 767 q 636 550 625 624 q 647 413 647 476 q 633 270 647 343 q 583 138 618 197 q 492 41 549 79 q 353 3 436 3 q 225 30 281 3 q 133 103 169 57 q 77 210 96 149 q 58 339 58 271 q 85 478 58 413 q 160 597 113 544 q 269 683 207 649 q 404 729 332 718 m 438 583 q 354 554 389 578 q 297 496 319 531 q 263 418 274 461 q 251 331 251 375 q 256 274 251 307 q 270 212 260 242 q 301 161 281 182 q 351 140 321 140 q 405 174 385 140 q 436 252 425 207 q 451 343 447 297 q 454 413 454 389 q 452 499 454 456 q 438 583 450 542 z "},"ñ":{"ha":671,"x_min":-12,"x_max":685,"o":"m 69 603 l -12 740 l 175 740 q 226 718 203 740 q 249 668 249 696 q 303 720 272 696 q 372 749 335 744 q 338 765 353 754 q 313 788 324 776 q 292 808 301 800 q 275 817 283 817 q 255 810 264 817 q 236 794 246 803 q 215 778 226 785 q 185 771 203 771 l 111 771 l 111 829 q 128 875 111 851 q 169 919 144 899 q 220 951 193 939 q 268 964 247 964 q 318 953 296 964 q 357 928 340 942 q 385 903 374 914 q 403 892 397 892 q 417 899 410 892 q 435 917 425 907 q 458 934 446 926 q 485 942 471 942 l 560 942 l 560 872 q 544 836 560 856 q 507 799 529 817 q 460 768 485 782 q 415 749 435 754 q 559 678 503 739 q 615 525 615 618 l 615 407 q 616 270 615 338 q 618 133 617 203 l 685 0 l 596 -6 l 372 0 l 432 133 l 431 538 q 372 596 431 596 q 337 587 354 596 q 304 565 319 578 q 276 535 289 551 q 254 506 264 519 q 258 360 258 433 q 257 247 258 303 q 257 135 256 192 l 351 0 l 93 -4 l 0 0 l 71 133 l 69 603 z "},"ò":{"ha":590,"x_min":24,"x_max":568,"o":"m 24 363 q 37 499 24 431 q 83 624 50 568 q 169 714 115 679 q 303 749 222 749 q 433 714 382 749 q 515 625 485 679 q 556 503 544 571 q 568 371 568 436 q 555 235 568 303 q 510 114 542 168 q 425 26 478 60 q 292 -7 372 -7 q 162 26 214 -7 q 79 113 110 60 q 36 231 49 165 q 24 363 24 297 m 201 340 q 204 284 201 319 q 217 213 207 249 q 243 152 226 178 q 289 126 260 126 q 345 155 325 126 q 375 222 365 183 q 388 302 385 261 q 390 368 390 343 q 388 433 390 392 q 377 515 386 475 q 349 586 368 556 q 297 617 331 617 q 259 601 275 617 q 233 559 243 585 q 216 502 222 533 q 206 440 210 471 q 202 382 203 408 q 201 340 201 356 m 325 779 l 168 949 l 317 968 l 424 793 l 325 779 z "},"ó":{"ha":590,"x_min":24,"x_max":568,"o":"m 24 363 q 37 499 24 431 q 83 624 50 568 q 169 714 115 679 q 303 749 222 749 q 433 714 382 749 q 515 625 485 679 q 556 503 544 571 q 568 371 568 436 q 555 235 568 303 q 510 114 542 168 q 425 26 478 60 q 292 -7 372 -7 q 162 26 214 -7 q 79 113 110 60 q 36 231 49 165 q 24 363 24 297 m 201 340 q 204 284 201 319 q 217 213 207 249 q 243 152 226 178 q 289 126 260 126 q 345 155 325 126 q 375 222 365 183 q 388 302 385 261 q 390 368 390 343 q 388 433 390 392 q 377 515 386 475 q 349 586 368 556 q 297 617 331 617 q 259 601 275 617 q 233 559 243 585 q 216 502 222 533 q 206 440 210 471 q 202 382 203 408 q 201 340 201 356 m 275 968 l 424 949 l 267 779 l 168 793 l 275 968 z "},"ô":{"ha":590,"x_min":24,"x_max":568,"o":"m 24 363 q 37 499 24 431 q 83 624 50 568 q 169 714 115 679 q 303 749 222 749 q 433 714 382 749 q 515 625 485 679 q 556 503 544 571 q 568 371 568 436 q 555 235 568 303 q 510 114 542 168 q 425 26 478 60 q 292 -7 372 -7 q 162 26 214 -7 q 79 113 110 60 q 36 231 49 165 q 24 363 24 297 m 201 340 q 204 284 201 319 q 217 213 207 249 q 243 152 226 178 q 289 126 260 126 q 345 155 325 126 q 375 222 365 183 q 388 302 385 261 q 390 368 390 343 q 388 433 390 392 q 377 515 386 475 q 349 586 368 556 q 297 617 331 617 q 259 601 275 617 q 233 559 243 585 q 216 502 222 533 q 206 440 210 471 q 202 382 203 408 q 201 340 201 356 m 538 763 l 410 757 l 299 833 l 192 771 l 53 775 l 203 958 l 300 997 l 403 950 l 538 763 z "},"õ":{"ha":590,"x_min":24,"x_max":568,"o":"m 24 363 q 37 499 24 431 q 83 624 50 568 q 169 714 115 679 q 303 749 222 749 q 433 714 382 749 q 515 625 485 679 q 556 503 544 571 q 568 371 568 436 q 555 235 568 303 q 510 114 542 168 q 425 26 478 60 q 292 -7 372 -7 q 162 26 214 -7 q 79 113 110 60 q 36 231 49 165 q 24 363 24 297 m 201 340 q 204 284 201 319 q 217 213 207 249 q 243 152 226 178 q 289 126 260 126 q 345 155 325 126 q 375 222 365 183 q 388 302 385 261 q 390 368 390 343 q 388 433 390 392 q 377 515 386 475 q 349 586 368 556 q 297 617 331 617 q 259 601 275 617 q 233 559 243 585 q 216 502 222 533 q 206 440 210 471 q 202 382 203 408 q 201 340 201 356 m 235 817 q 215 810 224 817 q 196 794 206 803 q 174 778 186 785 q 144 771 163 771 l 71 771 l 71 829 q 88 875 71 851 q 128 919 104 899 q 180 951 153 939 q 228 964 207 964 q 278 953 256 964 q 317 928 300 942 q 345 903 333 914 q 363 892 357 892 q 377 899 369 892 q 395 917 385 907 q 418 934 406 926 q 444 942 431 942 l 519 942 l 519 872 q 501 832 519 854 q 456 791 482 810 q 401 759 429 772 q 357 746 374 746 q 313 757 332 746 q 280 781 294 768 q 255 806 265 794 q 235 817 244 817 z "},"ö":{"ha":590,"x_min":24,"x_max":568,"o":"m 24 363 q 37 499 24 431 q 83 624 50 568 q 169 714 115 679 q 303 749 222 749 q 433 714 382 749 q 515 625 485 679 q 556 503 544 571 q 568 371 568 436 q 555 235 568 303 q 510 114 542 168 q 425 26 478 60 q 292 -7 372 -7 q 162 26 214 -7 q 79 113 110 60 q 36 231 49 165 q 24 363 24 297 m 201 340 q 204 284 201 319 q 217 213 207 249 q 243 152 226 178 q 289 126 260 126 q 345 155 325 126 q 375 222 365 183 q 388 302 385 261 q 390 368 390 343 q 388 433 390 392 q 377 515 386 475 q 349 586 368 556 q 297 617 331 617 q 259 601 275 617 q 233 559 243 585 q 216 502 222 533 q 206 440 210 471 q 202 382 203 408 q 201 340 201 356 m 104 883 q 130 946 104 925 q 196 967 156 967 q 260 946 236 967 q 285 883 285 925 q 260 822 285 843 q 196 801 235 801 q 131 822 158 801 q 104 883 104 843 m 306 883 q 331 946 306 925 q 397 967 357 967 q 462 946 438 967 q 486 883 486 925 q 461 822 486 843 q 397 801 436 801 q 333 822 360 801 q 306 883 306 843 z "},"÷":{"ha":694,"x_min":92,"x_max":597,"o":"m 456 301 q 422 220 456 247 q 336 193 388 193 q 250 220 285 193 q 215 301 215 247 q 251 381 215 354 q 336 408 286 408 q 420 381 385 408 q 456 301 456 354 m 215 740 q 251 821 215 793 q 336 849 288 849 q 420 820 385 849 q 456 740 456 792 q 421 660 456 688 q 336 633 386 633 q 251 660 286 633 q 215 740 215 688 m 92 594 l 597 597 l 597 440 l 92 438 l 92 594 z "},"ø":{"ha":590,"x_min":24,"x_max":568,"o":"m 24 363 q 37 499 24 431 q 83 624 50 568 q 169 714 115 679 q 303 749 222 749 q 353 744 331 749 q 383 796 365 778 q 440 814 401 814 l 497 814 l 497 758 q 492 731 497 751 q 476 678 486 710 q 520 614 503 650 q 548 538 538 578 q 563 455 558 497 q 568 371 568 413 q 555 235 568 303 q 510 114 542 168 q 425 26 478 60 q 292 -7 372 -7 q 246 -3 269 -7 q 238 -24 242 -14 q 232 -40 235 -33 q 203 -83 224 -71 q 154 -94 182 -94 l 99 -94 l 99 -40 q 106 -12 99 -37 q 126 54 114 14 q 78 116 97 81 q 47 192 58 151 q 29 276 35 233 q 24 363 24 319 m 201 340 q 201 321 201 332 q 203 297 201 310 q 257 465 231 381 q 307 615 283 549 q 302 616 304 615 q 297 617 300 617 q 259 601 275 617 q 233 559 243 585 q 216 502 222 533 q 206 440 210 471 q 202 382 203 408 q 201 340 201 356 m 292 126 q 347 156 326 128 q 376 224 367 185 q 388 303 386 263 q 390 368 390 343 q 390 388 390 376 q 389 413 390 399 q 339 263 364 338 q 292 126 314 189 z "},"ù":{"ha":622,"x_min":-3,"x_max":632,"o":"m 233 197 q 293 139 233 139 q 328 148 311 139 q 360 170 344 157 q 388 199 375 183 q 411 226 401 214 q 411 414 411 321 q 408 601 411 507 l 333 740 l 421 738 l 564 739 l 631 736 l 586 601 l 588 132 l 632 -6 l 540 -6 q 497 -3 518 -6 q 460 6 476 -1 q 432 29 443 14 q 415 71 421 44 q 356 12 392 39 q 279 -15 321 -15 q 187 1 229 -15 q 114 46 144 17 q 66 117 83 75 q 49 210 49 158 l 49 328 q 48 465 49 397 q 46 601 47 532 l -3 739 l 68 740 l 149 739 l 300 739 l 232 601 l 233 197 m 340 779 l 183 949 l 332 968 l 439 793 l 340 779 z "},"ú":{"ha":622,"x_min":-3,"x_max":632,"o":"m 233 197 q 293 139 233 139 q 328 148 311 139 q 360 170 344 157 q 388 199 375 183 q 411 226 401 214 q 411 414 411 321 q 408 601 411 507 l 333 740 l 421 738 l 564 739 l 631 736 l 586 601 l 588 132 l 632 -6 l 540 -6 q 497 -3 518 -6 q 460 6 476 -1 q 432 29 443 14 q 415 71 421 44 q 356 12 392 39 q 279 -15 321 -15 q 187 1 229 -15 q 114 46 144 17 q 66 117 83 75 q 49 210 49 158 l 49 328 q 48 465 49 397 q 46 601 47 532 l -3 739 l 68 740 l 149 739 l 300 739 l 232 601 l 233 197 m 290 968 l 439 949 l 282 779 l 183 793 l 290 968 z "},"û":{"ha":622,"x_min":-3,"x_max":632,"o":"m 233 197 q 293 139 233 139 q 328 148 311 139 q 360 170 344 157 q 388 199 375 183 q 411 226 401 214 q 411 414 411 321 q 408 601 411 507 l 333 740 l 421 738 l 564 739 l 631 736 l 586 601 l 588 132 l 632 -6 l 540 -6 q 497 -3 518 -6 q 460 6 476 -1 q 432 29 443 14 q 415 71 421 44 q 356 12 392 39 q 279 -15 321 -15 q 187 1 229 -15 q 114 46 144 17 q 66 117 83 75 q 49 210 49 158 l 49 328 q 48 465 49 397 q 46 601 47 532 l -3 739 l 68 740 l 149 739 l 300 739 l 232 601 l 233 197 m 554 763 l 426 757 l 315 833 l 208 771 l 69 775 l 219 958 l 317 997 l 419 950 l 554 763 z "},"ü":{"ha":622,"x_min":-3,"x_max":632,"o":"m 233 197 q 293 139 233 139 q 328 148 311 139 q 360 170 344 157 q 388 199 375 183 q 411 226 401 214 q 411 414 411 321 q 408 601 411 507 l 333 740 l 421 738 l 564 739 l 631 736 l 586 601 l 588 132 l 632 -6 l 540 -6 q 497 -3 518 -6 q 460 6 476 -1 q 432 29 443 14 q 415 71 421 44 q 356 12 392 39 q 279 -15 321 -15 q 187 1 229 -15 q 114 46 144 17 q 66 117 83 75 q 49 210 49 158 l 49 328 q 48 465 49 397 q 46 601 47 532 l -3 739 l 68 740 l 149 739 l 300 739 l 232 601 l 233 197 m 121 883 q 147 946 121 925 q 213 967 172 967 q 277 946 253 967 q 301 883 301 925 q 276 822 301 843 q 213 801 251 801 q 148 822 175 801 q 121 883 121 843 m 322 883 q 348 946 322 925 q 414 967 374 967 q 478 946 454 967 q 503 883 503 925 q 478 822 503 843 q 414 801 453 801 q 349 822 376 801 q 322 883 322 843 z "},"ý":{"ha":636,"x_min":-25,"x_max":640,"o":"m 574 603 q 574 327 574 464 q 575 51 575 190 q 560 -80 575 -17 q 511 -191 544 -143 q 424 -267 478 -239 q 293 -296 371 -296 q 208 -283 250 -296 q 132 -247 165 -271 q 78 -187 99 -224 q 57 -103 57 -151 l 57 18 l 263 -172 q 324 -151 300 -172 q 363 -99 349 -129 q 383 -37 378 -69 q 389 18 389 -4 l 389 67 q 334 19 365 40 q 267 -1 303 -1 q 174 15 217 -1 q 101 60 132 31 q 53 131 71 89 q 36 224 36 172 l 36 342 q 35 473 36 408 q 33 604 33 538 l -25 739 l 56 740 l 290 736 l 219 603 l 221 210 q 281 153 221 153 q 315 161 299 153 q 344 182 331 169 q 369 210 357 194 q 389 239 381 225 l 389 256 q 389 429 389 343 q 388 603 389 515 l 307 738 l 408 738 l 551 739 l 640 738 l 574 603 m 297 968 l 446 949 l 289 779 l 190 793 l 297 968 z "},"þ":{"ha":675,"x_min":8,"x_max":639,"o":"m 260 -139 l 389 -271 l 282 -272 l 82 -272 l 8 -271 l 82 -139 q 74 399 81 132 q 68 936 68 665 q 26 946 42 933 q 11 986 11 958 l 11 1057 l 110 1057 q 142 1056 122 1057 q 182 1051 163 1056 q 215 1036 201 1046 q 229 1007 229 1026 l 239 678 q 301 730 264 710 q 378 750 338 750 q 510 715 460 750 q 590 624 561 679 q 628 500 618 568 q 639 367 639 432 q 633 295 639 335 q 615 215 628 256 q 584 134 603 174 q 540 65 565 94 q 483 16 515 35 q 410 -3 450 -3 q 331 10 369 -3 q 261 51 292 24 l 260 -139 m 461 390 q 459 449 461 413 q 448 520 457 485 q 421 581 439 556 q 371 607 403 607 q 315 583 336 607 q 283 526 294 560 q 268 457 272 493 q 264 396 264 421 q 266 322 264 358 q 268 247 268 285 q 278 210 268 229 q 302 176 288 190 q 336 151 317 161 q 374 142 356 142 q 417 174 400 142 q 444 247 435 206 q 458 330 454 289 q 461 390 461 371 z "},"ÿ":{"ha":636,"x_min":-25,"x_max":640,"o":"m 574 603 q 574 327 574 464 q 575 51 575 190 q 560 -80 575 -17 q 511 -191 544 -143 q 424 -267 478 -239 q 293 -296 371 -296 q 208 -283 250 -296 q 132 -247 165 -271 q 78 -187 99 -224 q 57 -103 57 -151 l 57 18 l 263 -172 q 324 -151 300 -172 q 363 -99 349 -129 q 383 -37 378 -69 q 389 18 389 -4 l 389 67 q 334 19 365 40 q 267 -1 303 -1 q 174 15 217 -1 q 101 60 132 31 q 53 131 71 89 q 36 224 36 172 l 36 342 q 35 473 36 408 q 33 604 33 538 l -25 739 l 56 740 l 290 736 l 219 603 l 221 210 q 281 153 221 153 q 315 161 299 153 q 344 182 331 169 q 369 210 357 194 q 389 239 381 225 l 389 256 q 389 429 389 343 q 388 603 389 515 l 307 738 l 408 738 l 551 739 l 640 738 l 574 603 m 128 883 q 153 946 128 925 q 219 967 179 967 q 284 946 260 967 q 308 883 308 925 q 283 822 308 843 q 219 801 258 801 q 155 822 182 801 q 128 883 128 843 m 329 883 q 355 946 329 925 q 421 967 381 967 q 485 946 461 967 q 510 883 510 925 q 485 822 510 843 q 421 801 460 801 q 356 822 383 801 q 329 883 329 843 z "},"Đ":{"ha":728,"x_min":-36,"x_max":721,"o":"m -36 -14 l 60 132 l 69 556 l 0 556 l 0 710 l 72 710 l 78 932 l -35 1082 l 103 1083 l 313 1083 q 501 1047 424 1083 q 628 948 579 1011 q 699 798 676 885 q 721 610 721 711 q 712 475 721 546 q 682 335 703 404 q 628 202 661 265 q 549 91 596 139 q 441 15 503 43 q 301 -14 379 -14 l -36 -14 m 268 710 l 401 710 l 401 556 l 264 556 l 254 132 q 272 131 263 131 q 289 131 281 131 q 376 155 339 131 q 439 218 413 179 q 482 307 465 257 q 508 408 499 357 q 522 509 518 460 q 525 594 525 558 q 518 695 525 636 q 491 808 511 754 q 436 899 471 861 q 344 936 401 936 q 309 935 326 936 q 274 935 292 935 l 268 710 z "},"đ":{"ha":639,"x_min":21,"x_max":657,"o":"m 429 72 q 365 15 403 39 q 283 -8 328 -8 q 151 27 203 -8 q 71 117 100 63 q 31 240 42 172 q 21 375 21 308 q 35 486 21 422 q 76 607 49 550 q 147 704 104 664 q 250 744 190 744 q 331 731 293 744 q 401 689 369 717 l 403 783 l 317 783 l 317 933 l 394 933 l 288 1054 l 494 1054 q 567 1028 551 1054 q 583 949 583 1001 l 583 932 l 618 932 l 618 782 l 582 782 l 578 121 l 657 0 l 544 0 q 513 1 532 0 q 477 6 494 1 q 447 21 460 11 q 432 49 433 31 l 429 72 m 199 351 q 201 293 199 329 q 212 222 203 257 q 239 160 221 186 q 289 135 257 135 q 346 158 325 135 q 378 214 367 181 q 392 283 389 247 q 396 346 396 319 q 394 420 396 383 q 393 494 393 457 q 383 531 393 513 q 358 565 374 550 q 324 590 343 581 q 288 600 306 600 q 244 569 261 600 q 216 496 226 538 q 202 413 206 454 q 199 351 199 371 z "},"ı":{"ha":342,"x_min":-11,"x_max":386,"o":"m 131 740 q 176 740 151 740 q 222 735 200 740 q 259 715 244 729 q 274 671 274 700 q 271 444 274 557 q 268 218 268 332 l 268 135 l 386 0 l 117 -4 l -11 -4 l 101 132 l 100 603 l 6 740 l 131 740 z "},"Ł":{"ha":588,"x_min":-10,"x_max":588,"o":"m 532 6 l 14 -18 l 94 126 l 93 289 l 61 278 l 11 424 l 92 451 l 88 946 l -10 1085 l 397 1085 l 281 950 l 282 515 l 381 549 l 429 403 l 282 353 l 283 135 l 415 151 l 588 336 l 576 253 l 532 6 z "},"ł":{"ha":335,"x_min":-33,"x_max":367,"o":"m 74 303 l 35 283 l -33 422 l 74 475 l 72 922 l 4 1060 l 181 1060 q 206 1053 193 1060 q 231 1038 219 1047 q 249 1015 242 1028 q 257 990 257 1003 q 255 777 257 882 q 253 564 253 672 l 299 586 l 367 447 l 253 392 q 253 263 253 326 q 256 133 254 199 l 329 0 l 86 -4 l -4 -1 l 74 132 l 74 303 z "},"Œ":{"ha":1153,"x_min":24,"x_max":1143,"o":"m 24 536 q 39 733 24 632 q 96 915 54 833 q 213 1050 138 997 q 406 1103 288 1103 q 509 1088 464 1103 q 590 1047 554 1074 q 697 1086 624 1086 q 851 1085 775 1086 q 1004 1079 928 1085 q 1076 1065 1049 1076 q 1119 1031 1104 1053 q 1138 977 1133 1008 q 1143 906 1143 946 l 1143 801 l 994 917 l 764 922 l 760 571 l 922 597 l 1061 701 l 1061 607 l 1065 443 l 1063 347 l 922 449 l 758 422 l 754 151 l 976 169 l 1119 279 l 1119 196 q 1117 130 1119 164 q 1111 64 1114 96 q 1088 16 1107 25 q 1033 7 1068 7 q 865 -2 949 7 q 696 -11 781 -11 q 578 46 607 -11 q 495 7 542 21 q 390 -7 449 -7 q 257 16 314 -7 q 159 79 200 39 q 92 173 118 119 q 51 286 67 226 q 30 410 36 346 q 24 536 24 475 m 221 499 q 224 440 221 475 q 235 364 228 404 q 255 284 243 324 q 285 213 267 244 q 328 160 304 181 q 385 140 353 140 q 451 163 424 140 q 499 220 479 185 q 532 300 519 256 q 551 390 544 344 q 561 475 558 435 q 564 543 564 515 q 563 613 564 571 q 556 700 561 654 q 539 792 550 746 q 509 876 528 839 q 463 937 490 914 q 396 960 435 960 q 326 933 356 960 q 278 865 297 907 q 247 772 258 824 q 230 668 236 719 q 222 572 224 617 q 221 499 221 526 z "},"œ":{"ha":931,"x_min":24,"x_max":917,"o":"m 24 363 q 37 499 24 431 q 83 624 50 568 q 169 714 115 679 q 303 749 222 749 q 410 727 365 749 q 485 669 454 706 q 565 727 517 706 q 679 749 613 749 q 765 735 725 749 q 836 695 806 721 q 885 632 867 669 q 903 546 903 594 q 869 438 903 482 q 787 361 836 394 q 683 301 738 328 q 585 244 628 274 q 597 204 589 225 q 617 166 604 183 q 647 138 629 149 q 688 126 664 126 l 917 319 l 917 244 q 900 148 917 193 q 853 68 883 103 q 779 13 822 33 q 683 -7 736 -7 q 565 15 614 -7 q 482 75 515 38 q 403 15 450 38 q 292 -7 357 -7 q 162 26 214 -7 q 79 113 110 60 q 36 231 49 165 q 24 363 24 297 m 201 340 q 204 284 201 319 q 217 213 207 249 q 243 152 226 178 q 289 126 260 126 q 345 155 325 126 q 375 222 365 183 q 388 302 385 261 q 390 368 390 343 q 388 433 390 392 q 377 515 386 475 q 349 586 368 556 q 297 617 331 617 q 259 601 275 617 q 233 559 243 585 q 216 502 222 533 q 206 440 210 471 q 202 382 203 408 q 201 340 201 356 m 575 382 q 621 408 592 392 q 678 445 650 425 q 728 488 707 465 q 749 533 749 511 q 731 591 749 565 q 678 617 713 617 q 623 589 643 617 q 592 524 603 561 q 578 447 582 486 q 575 382 575 407 z "},"Š":{"ha":674,"x_min":21,"x_max":651,"o":"m 25 801 q 46 913 25 858 q 104 1011 67 968 q 193 1080 142 1054 q 304 1106 244 1106 q 418 1079 364 1106 q 508 1006 472 1053 l 640 1110 l 618 728 l 617 664 l 325 954 q 282 940 301 954 q 249 904 263 925 q 229 859 236 883 q 222 814 222 835 q 254 724 222 764 q 333 645 286 683 q 437 569 381 607 q 540 483 493 531 q 619 378 588 436 q 651 242 651 319 q 635 144 651 190 q 590 63 619 97 q 516 9 560 29 q 418 -11 472 -11 q 278 21 346 -11 q 158 101 210 53 l 21 -37 l 21 368 l 392 133 q 422 142 408 133 q 445 163 436 150 q 460 192 454 176 q 465 224 465 208 q 433 307 465 268 q 351 385 400 346 q 245 465 303 424 q 139 557 188 507 q 58 667 90 607 q 25 801 25 726 m 342 1115 l 244 1154 l 94 1338 l 233 1342 l 340 1279 l 451 1356 l 579 1350 l 444 1163 l 342 1115 z "},"š":{"ha":511,"x_min":13,"x_max":497,"o":"m 24 532 q 40 615 24 576 q 86 682 57 654 q 154 726 115 710 q 238 742 193 742 q 299 733 269 742 q 354 704 329 724 l 467 785 l 467 458 l 258 596 q 216 584 235 596 q 197 546 197 572 q 219 501 197 522 q 273 458 240 481 q 344 410 306 436 q 415 349 382 383 q 469 272 447 315 q 490 171 490 228 q 472 98 490 132 q 424 39 453 64 q 358 0 394 14 q 283 -14 321 -14 q 206 3 243 -14 q 139 44 169 19 l 17 -31 l 15 40 l 17 211 l 17 294 l 261 133 q 296 147 279 133 q 313 181 313 161 q 291 228 313 207 q 238 272 269 250 q 168 318 206 294 q 99 372 131 342 q 45 442 67 403 q 24 532 24 481 m 260 757 l 163 796 l 13 979 l 151 983 l 258 921 l 369 997 l 497 992 l 363 804 l 260 757 z "},"Ÿ":{"ha":704,"x_min":-11,"x_max":739,"o":"m 471 958 l 368 1099 l 739 1099 l 636 963 q 613 894 631 943 q 574 782 596 844 q 530 651 553 719 q 488 523 507 582 q 455 422 468 464 q 442 372 442 381 q 440 244 439 308 q 439 115 440 179 l 546 -22 l 431 -22 l 240 -25 l 125 -24 l 246 114 q 249 246 247 181 q 250 378 250 311 q 238 419 250 381 q 208 517 226 458 q 167 645 189 576 q 124 776 144 714 q 89 886 104 839 q 69 949 74 933 l -11 1088 l 72 1086 l 263 1086 l 353 1088 l 271 951 l 361 603 l 471 958 m 161 1242 q 187 1304 161 1283 q 253 1325 213 1325 q 317 1304 293 1325 q 342 1242 342 1283 q 317 1181 342 1201 q 253 1160 292 1160 q 188 1181 215 1160 q 161 1242 161 1201 m 363 1242 q 388 1304 363 1283 q 454 1325 414 1325 q 519 1304 494 1325 q 543 1242 543 1283 q 518 1181 543 1201 q 454 1160 493 1160 q 390 1181 417 1160 q 363 1242 363 1201 z "},"Ž":{"ha":632,"x_min":14,"x_max":649,"o":"m 607 29 l 494 21 q 300 8 397 14 q 106 3 203 3 q 40 24 67 3 q 14 85 14 44 q 33 165 14 126 l 394 921 l 171 915 l 14 775 l 69 1081 q 153 1084 110 1083 q 243 1085 197 1085 q 397 1083 321 1085 q 544 1082 474 1082 q 601 1066 581 1082 q 621 1013 621 1050 q 619 974 621 994 q 611 936 618 953 l 244 169 l 485 185 l 649 372 l 607 29 m 321 1115 l 224 1154 l 74 1338 l 213 1342 l 319 1279 l 431 1356 l 558 1350 l 424 1163 l 321 1115 z "},"ž":{"ha":501,"x_min":8,"x_max":493,"o":"m 444 18 l 83 3 q 33 19 53 3 q 14 67 14 35 q 28 122 14 94 l 261 590 l 128 583 l 14 496 l 43 729 l 415 733 q 461 716 450 733 q 472 667 472 699 q 471 644 472 656 q 465 621 469 632 l 465 622 l 231 156 l 371 165 l 488 283 l 444 18 m 256 757 l 158 796 l 8 979 l 147 983 l 254 921 l 365 997 l 493 992 l 358 804 l 256 757 z "},"ƒ":{"ha":539,"x_min":0,"x_max":558,"o":"m 119 356 q 119 476 119 417 q 118 597 119 536 l 0 740 l 79 743 l 117 743 q 124 866 117 803 q 156 981 132 929 q 224 1065 179 1032 q 346 1099 269 1099 q 428 1086 390 1099 q 496 1049 467 1074 q 542 989 525 1025 q 558 907 558 953 l 556 822 l 354 958 q 326 942 336 958 q 312 903 317 925 q 306 859 307 882 q 306 824 306 836 q 306 783 306 804 q 307 743 307 763 l 432 743 l 428 600 l 307 600 q 306 432 307 515 q 306 264 306 349 l 306 -78 l 17 -82 l 17 60 l 115 47 l 119 356 z "},"ˆ":{"ha":631,"x_min":68,"x_max":553,"o":"m 553 763 l 425 757 l 314 833 l 207 771 l 68 775 l 218 958 l 315 997 l 418 950 l 553 763 z "},"ˇ":{"ha":638,"x_min":68,"x_max":553,"o":"m 315 757 l 218 796 l 68 979 l 207 983 l 314 921 l 425 997 l 553 992 l 418 804 l 315 757 z "},"˘":{"ha":535,"x_min":63,"x_max":471,"o":"m 146 972 q 181 962 165 972 q 209 939 196 951 q 236 916 222 926 q 267 906 250 906 q 297 915 285 906 q 322 936 310 925 q 350 957 335 947 q 389 967 365 967 l 471 967 l 471 906 q 447 853 471 878 q 390 812 424 829 q 322 784 357 794 q 263 774 286 774 q 203 784 238 774 q 138 813 169 794 q 85 856 107 832 q 63 910 63 881 l 63 972 l 146 972 z "},"˙":{"ha":297,"x_min":60,"x_max":240,"o":"m 60 883 q 85 946 60 925 q 151 967 111 967 q 216 946 192 967 q 240 883 240 925 q 215 822 240 843 q 151 801 190 801 q 87 822 114 801 q 60 883 60 843 z "},"˚":{"ha":418,"x_min":61,"x_max":382,"o":"m 61 868 q 76 917 61 896 q 113 955 90 939 q 166 979 136 971 q 225 988 196 988 q 283 980 254 988 q 333 958 311 972 q 368 922 354 943 q 382 875 382 901 q 367 826 382 849 q 329 789 353 804 q 276 765 306 774 q 218 756 247 756 q 162 763 190 756 q 111 785 133 771 q 75 821 89 800 q 61 868 61 842 m 218 906 q 174 871 174 906 q 187 847 174 854 q 221 839 200 839 q 268 872 268 839 q 254 897 268 888 q 218 906 240 906 z "},"˛":{"ha":464,"x_min":117,"x_max":349,"o":"m 276 -118 q 288 -131 276 -126 q 312 -144 299 -136 q 336 -165 325 -151 q 347 -203 347 -178 l 347 -271 l 289 -271 q 231 -257 261 -271 q 175 -220 200 -243 q 133 -168 150 -197 q 117 -110 117 -139 q 138 -64 117 -83 q 185 -28 160 -44 q 235 5 211 -11 q 263 40 258 21 l 349 19 q 338 -13 349 4 q 313 -49 326 -31 q 288 -84 299 -67 q 276 -118 276 -101 z "},"˜":{"ha":586,"x_min":81,"x_max":529,"o":"m 244 817 q 224 810 233 817 q 206 794 215 803 q 184 778 196 785 q 154 771 172 771 l 81 771 l 81 829 q 97 875 81 851 q 138 919 114 899 q 190 951 163 939 q 238 964 217 964 q 288 953 265 964 q 326 928 310 942 q 355 903 343 914 q 372 892 367 892 q 387 899 379 892 q 405 917 394 907 q 428 934 415 926 q 454 942 440 942 l 529 942 l 529 872 q 510 832 529 854 q 465 791 492 810 q 411 759 439 772 q 367 746 383 746 q 323 757 342 746 q 290 781 304 768 q 265 806 275 794 q 244 817 254 817 z "},"˝":{"ha":532,"x_min":46,"x_max":490,"o":"m 153 968 l 301 949 l 144 779 l 46 793 l 153 968 m 342 968 l 490 949 l 333 779 l 235 793 l 342 968 z "},"–":{"ha":642,"x_min":76,"x_max":579,"o":"m 76 511 l 579 511 l 579 357 l 76 357 l 76 511 z "},"—":{"ha":772,"x_min":76,"x_max":703,"o":"m 76 511 l 703 511 l 703 357 l 76 357 l 76 511 z "},"‘":{"ha":274,"x_min":42,"x_max":225,"o":"m 204 846 l 42 854 l 113 1136 l 225 1132 l 204 846 z "},"’":{"ha":279,"x_min":58,"x_max":242,"o":"m 79 1136 l 242 1128 l 171 846 l 58 850 l 79 1136 z "},"‚":{"ha":281,"x_min":38,"x_max":221,"o":"m 58 143 l 221 135 l 150 -147 l 38 -143 l 58 143 z "},"“":{"ha":442,"x_min":42,"x_max":403,"o":"m 204 846 l 42 854 l 113 1136 l 225 1132 l 204 846 m 382 846 l 219 854 l 290 1136 l 403 1132 l 382 846 z "},"”":{"ha":449,"x_min":58,"x_max":419,"o":"m 79 1136 l 242 1128 l 171 846 l 58 850 l 79 1136 m 257 1136 l 419 1128 l 349 846 l 236 850 l 257 1136 z "},"„":{"ha":443,"x_min":38,"x_max":408,"o":"m 58 143 l 221 135 l 150 -147 l 38 -143 l 58 143 m 246 143 l 408 135 l 338 -147 l 225 -143 l 246 143 z "},"†":{"ha":400,"x_min":18,"x_max":383,"o":"m 19 836 l 18 969 l 111 968 l 108 1161 l 290 1165 l 296 968 l 379 976 l 383 838 l 296 835 l 301 -140 l 118 -140 l 111 835 l 19 836 z "},"‡":{"ha":453,"x_min":44,"x_max":421,"o":"m 322 458 l 324 194 l 421 194 l 421 58 l 324 58 l 324 -136 l 144 -136 l 139 58 l 44 56 l 44 194 l 139 194 l 138 829 l 44 831 l 44 967 l 138 967 l 133 1160 l 324 1165 l 322 967 l 404 969 l 403 831 l 322 831 l 322 458 z "},"•":{"ha":375,"x_min":49,"x_max":333,"o":"m 49 529 q 60 583 49 560 q 92 622 72 607 q 137 646 111 638 q 192 654 163 654 q 245 646 219 654 q 290 622 271 638 q 322 582 310 606 q 333 529 333 558 q 322 476 333 500 q 290 438 310 453 q 245 414 271 422 q 192 406 219 406 q 138 413 164 406 q 92 437 113 421 q 60 476 72 453 q 49 529 49 499 z "},"…":{"ha":1133,"x_min":64,"x_max":1068,"o":"m 64 74 q 100 156 64 129 q 188 183 136 183 q 276 156 239 183 q 313 74 313 129 q 276 -10 313 18 q 188 -37 240 -37 q 99 -10 135 -37 q 64 74 64 18 m 442 74 q 478 156 442 129 q 565 183 514 183 q 653 156 617 183 q 690 74 690 129 q 654 -10 690 18 q 565 -37 618 -37 q 477 -10 513 -37 q 442 74 442 18 m 819 74 q 856 156 819 129 q 943 183 892 183 q 1031 156 994 183 q 1068 74 1068 129 q 1032 -10 1068 18 q 943 -37 996 -37 q 855 -10 890 -37 q 819 74 819 18 z "},"‰":{"ha":1801,"x_min":31,"x_max":1754,"o":"m 375 -19 l 165 -26 l 793 928 q 686 926 740 925 q 579 935 632 928 q 610 859 599 899 q 621 779 621 819 q 594 669 621 721 q 526 577 568 617 q 428 515 483 538 q 317 492 374 492 q 203 516 256 492 q 112 582 150 540 q 52 678 74 624 q 31 793 31 733 q 55 912 31 856 q 121 1010 79 968 q 218 1078 163 1053 q 336 1103 274 1103 q 390 1099 364 1103 q 442 1092 415 1096 q 622 1071 532 1078 q 803 1064 711 1064 q 881 1067 843 1064 q 956 1083 919 1069 l 1047 1008 l 375 -19 m 925 -50 q 815 -28 865 -50 q 730 33 765 -6 q 675 123 694 71 q 656 233 656 175 q 678 354 656 296 q 742 456 701 413 q 837 526 782 500 q 957 553 892 553 q 1068 531 1018 553 q 1153 469 1118 508 q 1209 378 1189 431 q 1229 268 1229 326 q 1206 146 1229 204 q 1143 44 1183 88 q 1047 -24 1103 1 q 925 -50 992 -50 m 324 646 q 374 658 353 646 q 408 690 394 671 q 427 735 421 710 q 433 786 433 761 q 427 840 433 810 q 408 898 421 871 q 374 944 394 925 q 325 964 354 964 q 277 944 297 964 q 244 897 257 925 q 226 839 232 869 q 221 786 221 808 q 226 736 221 761 q 243 691 231 711 q 275 658 256 671 q 324 646 294 646 m 933 94 q 989 111 967 94 q 1025 154 1011 128 q 1045 211 1039 181 q 1051 268 1051 242 q 1047 315 1051 290 q 1031 361 1042 340 q 1001 396 1019 382 q 956 410 983 410 q 901 392 924 410 q 866 349 879 375 q 847 292 853 322 q 840 235 840 261 q 844 188 840 213 q 859 142 849 163 q 888 108 869 121 q 933 94 906 94 m 1450 274 q 1340 296 1390 274 q 1255 356 1290 318 q 1200 447 1219 394 q 1181 557 1181 499 q 1203 678 1181 619 q 1267 780 1226 736 q 1362 850 1307 824 q 1482 876 1417 876 q 1593 854 1543 876 q 1678 793 1643 832 q 1734 702 1714 754 q 1754 592 1754 650 q 1731 469 1754 528 q 1668 368 1708 411 q 1572 299 1628 325 q 1450 274 1517 274 m 1458 418 q 1514 435 1492 418 q 1550 478 1536 451 q 1570 535 1564 504 q 1576 592 1576 565 q 1572 639 1576 614 q 1556 685 1567 664 q 1526 719 1544 706 q 1481 733 1508 733 q 1426 716 1449 733 q 1391 672 1404 699 q 1372 615 1378 646 q 1365 558 1365 585 q 1369 511 1365 536 q 1384 465 1374 486 q 1413 431 1394 444 q 1458 418 1431 418 z "},"‹":{"ha":397,"x_min":51,"x_max":354,"o":"m 286 207 q 255 217 269 207 q 229 239 240 228 l 92 371 q 62 406 72 389 q 51 451 51 424 q 76 521 51 489 l 206 689 q 231 715 217 703 q 264 728 246 728 l 340 728 l 340 613 q 331 571 340 592 q 309 531 322 550 q 280 494 296 511 q 251 461 264 476 q 285 431 267 447 q 318 395 303 414 q 344 356 333 376 q 354 313 354 336 l 354 207 l 286 207 z "},"›":{"ha":381,"x_min":42,"x_max":344,"o":"m 42 207 l 42 313 q 52 356 42 336 q 78 395 63 376 q 111 431 93 414 q 144 461 129 447 q 116 494 132 476 q 87 531 100 511 q 65 571 74 550 q 56 613 56 592 l 56 728 l 132 728 q 165 715 150 728 q 190 689 179 703 l 319 521 q 344 451 344 489 q 334 406 344 424 q 304 371 324 389 l 167 239 q 141 217 156 228 q 110 207 126 207 l 42 207 z "},"⁄":{"ha":410,"x_min":3,"x_max":499,"o":"m 313 1128 l 499 1128 l 211 -31 l 3 -31 l 313 1128 z "},"€":{"ha":704,"x_min":18,"x_max":653,"o":"m 382 -7 q 249 30 301 -7 q 163 125 196 67 q 115 255 131 183 q 94 396 100 326 l 18 396 l 18 499 l 90 499 l 90 500 q 91 526 90 513 q 92 556 92 540 l 33 556 l 33 658 l 99 658 q 123 805 106 731 q 173 940 140 879 q 256 1038 206 1000 q 382 1076 307 1076 q 456 1062 419 1076 q 518 1019 492 1047 l 640 1133 l 632 783 l 632 693 l 401 929 q 357 905 376 929 q 324 842 338 881 q 300 754 310 803 q 285 658 290 706 l 435 658 l 435 556 l 275 556 q 273 524 274 538 q 272 499 272 510 l 419 499 l 419 396 l 278 396 q 290 310 282 356 q 314 228 299 265 q 351 166 329 190 q 404 142 374 142 l 653 368 l 653 -57 l 525 54 q 382 -7 468 -7 z "},"™":{"ha":913,"x_min":32,"x_max":888,"o":"m 168 1121 l 103 1122 l 32 1063 l 32 1100 q 41 1144 32 1128 q 67 1169 50 1161 q 108 1181 83 1178 q 163 1183 132 1183 q 223 1183 193 1183 q 283 1181 253 1182 q 313 1181 296 1181 q 347 1177 331 1181 q 376 1167 364 1174 q 392 1149 389 1161 q 396 1101 396 1126 l 396 1063 l 324 1119 l 271 1119 l 267 790 l 329 733 l 240 735 l 174 733 l 96 735 l 165 790 l 168 1121 m 492 738 l 407 736 l 367 738 l 414 792 l 429 1132 l 381 1189 l 515 1189 q 546 1186 539 1189 q 560 1165 553 1183 q 571 1134 567 1150 q 581 1103 575 1118 l 626 957 q 671 1056 650 1006 q 711 1156 692 1106 q 728 1177 718 1172 q 761 1182 739 1182 l 879 1182 l 825 1124 l 843 792 l 888 736 l 839 738 l 760 736 l 694 736 l 749 792 l 733 1015 q 694 916 714 965 q 651 818 675 867 q 610 794 642 794 q 576 815 583 794 l 507 1025 l 497 793 l 544 736 l 492 738 z "},"−":{"ha":750,"x_min":111,"x_max":617,"o":"m 111 594 l 617 597 l 617 440 l 111 438 l 111 594 z "},"ﬁ":{"ha":847,"x_min":0,"x_max":892,"o":"m 115 113 q 118 234 117 174 q 119 356 119 294 q 119 476 119 417 q 118 597 119 536 l 0 740 l 79 743 l 117 743 q 124 866 117 803 q 156 981 132 929 q 224 1065 179 1032 q 346 1099 269 1099 q 428 1086 390 1099 q 496 1049 467 1074 q 542 989 525 1025 q 558 907 558 953 l 556 822 l 354 958 q 326 942 336 958 q 312 903 317 925 q 306 859 307 882 q 306 824 306 836 q 306 783 306 804 q 307 743 307 763 l 432 743 l 428 600 l 307 600 q 306 432 307 515 q 306 264 306 349 q 306 188 306 226 q 307 113 306 150 l 440 -12 l 244 -14 l 97 -12 l 10 -12 l 115 113 m 675 803 q 629 805 650 803 q 592 815 608 807 q 568 840 576 824 q 560 888 560 857 q 590 969 560 946 q 675 992 619 992 q 758 968 728 992 q 789 888 789 944 q 781 842 789 858 q 757 816 772 825 q 721 805 742 807 q 675 803 700 803 m 636 740 q 681 740 657 740 q 728 735 706 740 q 765 715 750 729 q 779 671 779 700 q 776 444 779 557 q 774 218 774 332 l 774 135 l 892 0 l 622 -4 l 494 -4 l 607 132 l 606 603 l 511 740 l 636 740 z "},"ﬂ":{"ha":857,"x_min":0,"x_max":851,"o":"m 115 113 q 118 234 117 174 q 119 356 119 294 q 119 476 119 417 q 118 597 119 536 l 0 740 l 79 743 l 117 743 q 124 866 117 803 q 156 981 132 929 q 224 1065 179 1032 q 346 1099 269 1099 q 428 1086 390 1099 q 496 1049 467 1074 q 542 989 525 1025 q 558 907 558 953 l 556 822 l 354 958 q 326 942 336 958 q 312 903 317 925 q 306 859 307 882 q 306 824 306 836 q 306 783 306 804 q 307 743 307 763 l 432 743 l 428 600 l 307 600 q 306 432 307 515 q 306 264 306 349 q 306 188 306 226 q 307 113 306 150 l 440 -12 l 244 -14 l 97 -12 l 10 -12 l 115 113 m 594 922 l 526 1060 l 703 1060 q 728 1053 715 1060 q 753 1038 742 1047 q 772 1015 764 1028 q 779 990 779 1003 q 777 770 779 879 q 775 550 775 661 q 775 342 775 446 q 778 133 775 238 l 851 0 l 608 -4 l 518 -1 l 596 132 l 594 922 z "}}}
